<svg width="250" height="44" viewBox="0 0 250 44" fill="none" xmlns="http://www.w3.org/2000/svg">
<path d="M230.934 38.228C230.742 38.228 230.614 38.212 230.55 38.18C230.39 38.116 230.23 38.084 230.07 38.084C229.942 38.116 229.798 38.132 229.638 38.132C229.606 38.132 229.574 38.132 229.542 38.132C229.51 38.164 229.478 38.18 229.446 38.18C229.222 38.212 228.998 38.228 228.774 38.228C228.582 38.228 228.39 38.196 228.198 38.132C228.166 38.1 228.134 38.084 228.102 38.084C227.878 38.116 227.686 38.052 227.526 37.892C227.366 37.732 227.206 37.588 227.046 37.46C226.886 37.3 226.806 37.124 226.806 36.932L226.662 36.548C226.566 36.324 226.534 36.116 226.566 35.924C226.598 35.86 226.598 35.796 226.566 35.732C226.566 35.668 226.566 35.604 226.566 35.54C226.534 35.476 226.518 35.412 226.518 35.348C226.518 35.252 226.502 35.172 226.47 35.108C226.406 34.82 226.358 34.532 226.326 34.244C226.326 33.924 226.342 33.62 226.374 33.332C226.406 33.14 226.518 32.82 226.71 32.372C226.902 31.892 227.014 31.604 227.046 31.508C227.142 31.348 227.19 31.22 227.19 31.124C227.158 30.772 227.142 30.42 227.142 30.068C227.174 29.684 227.19 29.316 227.19 28.964C227.19 28.74 227.238 28.564 227.334 28.436C227.462 28.212 227.478 27.972 227.382 27.716L227.238 27.188C227.046 26.836 227.062 26.532 227.286 26.276C227.286 26.244 227.286 26.228 227.286 26.228C227.318 26.196 227.334 26.164 227.334 26.132C227.398 26.068 227.414 25.988 227.382 25.892C227.35 25.764 227.334 25.668 227.334 25.604C227.334 25.476 227.35 25.348 227.382 25.22C227.446 25.06 227.462 24.916 227.43 24.788C227.43 24.788 227.398 24.756 227.334 24.692C227.302 24.628 227.286 24.5 227.286 24.308C227.318 24.116 227.334 24.004 227.334 23.972V22.628C227.366 22.468 227.382 22.324 227.382 22.196C227.382 22.036 227.398 21.876 227.43 21.716C227.462 21.524 227.462 21.332 227.43 21.14C227.43 20.916 227.43 20.692 227.43 20.468C227.398 20.308 227.366 20.132 227.334 19.94C227.334 19.748 227.334 19.556 227.334 19.364C227.302 19.3 227.286 19.22 227.286 19.124C227.286 19.028 227.286 18.948 227.286 18.884C227.254 18.724 227.222 18.564 227.19 18.404C227.19 18.244 227.19 18.084 227.19 17.924C227.19 17.86 227.126 17.652 226.998 17.3C226.87 16.916 226.822 16.596 226.854 16.34C226.886 16.276 226.902 16.196 226.902 16.1C226.902 16.004 226.87 15.924 226.806 15.86C226.742 15.828 226.71 15.764 226.71 15.668V15.524C226.806 15.14 226.758 14.756 226.566 14.372C226.438 14.18 226.39 13.988 226.422 13.796C226.422 13.54 226.31 13.348 226.086 13.22C225.926 13.06 225.782 12.868 225.654 12.644C225.526 12.42 225.446 12.196 225.414 11.972C225.382 11.812 225.366 11.652 225.366 11.492C225.366 11.332 225.366 11.188 225.366 11.06C225.366 10.932 225.382 10.852 225.414 10.82C225.542 10.692 225.606 10.548 225.606 10.388C225.606 10.196 225.622 10.052 225.654 9.95598C225.686 9.92398 225.718 9.90798 225.75 9.90798C225.782 9.90798 225.814 9.89198 225.846 9.85998C225.974 9.82798 226.038 9.71598 226.038 9.52398C225.974 9.39598 225.942 9.28398 225.942 9.18798C225.91 9.05998 225.958 8.94798 226.086 8.85198C226.15 8.72398 226.23 8.69198 226.326 8.75598C226.55 8.85198 226.806 8.81998 227.094 8.65998C227.222 8.59598 227.302 8.56398 227.334 8.56398C227.43 8.56398 227.478 8.56398 227.478 8.56398C227.51 8.53198 227.606 8.51598 227.766 8.51598C227.958 8.54798 228.134 8.48398 228.294 8.32398C228.518 8.09998 228.79 7.98798 229.11 7.98798H232.086C232.822 8.01998 233.558 8.01998 234.294 7.98798C235.03 7.95598 235.75 7.93998 236.454 7.93998C236.614 7.93998 236.742 7.93998 236.838 7.93998C236.966 7.90798 237.094 7.87598 237.222 7.84398C237.414 7.74798 237.638 7.69998 237.894 7.69998H238.998C239.254 7.69998 239.478 7.69998 239.67 7.69998C239.894 7.66798 240.118 7.63598 240.342 7.60398C240.47 7.57198 240.582 7.55598 240.678 7.55598C240.806 7.55598 240.934 7.55598 241.062 7.55598C241.19 7.55598 241.318 7.55598 241.446 7.55598C241.574 7.55598 241.702 7.53998 241.83 7.50798C242.086 7.47598 242.358 7.45998 242.646 7.45998C242.934 7.42798 243.206 7.41198 243.462 7.41198C243.59 7.41198 243.702 7.41198 243.798 7.41198C243.926 7.37998 244.054 7.34798 244.182 7.31598C244.438 7.25198 244.678 7.21998 244.902 7.21998C245.158 7.18798 245.398 7.15598 245.622 7.12398C245.878 7.09198 246.118 7.05998 246.342 7.02798C246.598 6.99598 246.838 6.96398 247.062 6.93198C247.35 6.93198 247.558 6.96398 247.686 7.02798C247.878 7.15598 248.054 7.26798 248.214 7.36398C248.406 7.45998 248.582 7.58798 248.742 7.74798C248.87 7.87598 248.95 7.98798 248.982 8.08398C249.014 8.21198 249.046 8.33998 249.078 8.46798C249.11 8.59598 249.142 8.73998 249.174 8.89998V9.23598C249.142 9.39598 249.11 9.57198 249.078 9.76398C249.078 9.92398 249.062 10.1 249.03 10.292C248.966 10.42 248.886 10.532 248.79 10.628L247.926 11.492C247.606 11.588 247.286 11.652 246.966 11.684C246.678 11.716 246.374 11.716 246.054 11.684H245.718C245.558 11.716 245.398 11.732 245.238 11.732C245.078 11.732 244.918 11.716 244.758 11.684C244.566 11.652 244.374 11.652 244.182 11.684C243.99 11.684 243.798 11.684 243.606 11.684C243.478 11.684 243.35 11.7 243.222 11.732C243.126 11.732 243.014 11.716 242.886 11.684C242.726 11.652 242.566 11.652 242.406 11.684C242.278 11.684 242.134 11.7 241.974 11.732C241.846 11.732 241.702 11.748 241.542 11.78C241.414 11.78 241.27 11.78 241.11 11.78C240.694 11.844 240.246 11.876 239.766 11.876C239.318 11.876 238.87 11.908 238.422 11.972C238.134 11.94 237.862 11.956 237.606 12.02C237.35 12.052 237.078 12.084 236.79 12.116C236.534 12.148 236.262 12.164 235.974 12.164C235.686 12.164 235.414 12.196 235.158 12.26C234.838 12.26 234.518 12.308 234.198 12.404C233.91 12.468 233.606 12.516 233.286 12.548L232.95 12.596C232.726 12.596 232.518 12.628 232.326 12.692C232.134 12.724 231.926 12.772 231.702 12.836C231.574 12.868 231.446 12.9 231.318 12.932C231.19 12.932 231.046 12.948 230.886 12.98C230.79 12.98 230.678 13.012 230.55 13.076C230.454 13.108 230.406 13.204 230.406 13.364L230.55 13.796C230.582 13.86 230.566 14.02 230.502 14.276C230.47 14.532 230.438 14.724 230.406 14.852C230.406 14.948 230.422 15.044 230.454 15.14C230.486 15.236 230.518 15.332 230.55 15.428C230.646 15.684 230.694 15.972 230.694 16.292C230.694 16.58 230.726 16.852 230.79 17.108C230.822 17.236 230.838 17.38 230.838 17.54C230.838 17.668 230.854 17.812 230.886 17.972C230.886 18.036 230.886 18.116 230.886 18.212C230.918 18.276 230.934 18.356 230.934 18.452C230.934 18.548 230.918 18.612 230.886 18.644C230.79 18.772 230.742 18.916 230.742 19.076C230.742 19.236 230.742 19.396 230.742 19.556C230.902 19.876 230.982 20.196 230.982 20.516C230.982 20.836 230.982 21.156 230.982 21.476C230.982 21.572 231.062 21.604 231.222 21.572H231.27C231.334 21.444 231.398 21.348 231.462 21.284C231.558 21.284 231.67 21.252 231.798 21.188C231.894 21.124 232.022 21.092 232.182 21.092C232.438 21.124 232.678 21.124 232.902 21.092C233.126 21.028 233.35 20.964 233.574 20.9C235.078 20.516 236.486 20.02 237.798 19.412C238.15 19.252 238.518 19.124 238.902 19.028C239.286 18.9 239.67 18.82 240.054 18.788H240.198C240.486 18.756 240.774 18.724 241.062 18.692C241.35 18.66 241.638 18.644 241.926 18.644C242.31 18.612 242.678 18.564 243.03 18.5C243.414 18.436 243.798 18.388 244.182 18.356C244.406 18.292 244.614 18.244 244.806 18.212C244.998 18.148 245.206 18.068 245.43 17.972C245.846 17.812 246.23 17.732 246.582 17.732C246.838 17.764 247.078 17.828 247.302 17.924C247.526 17.988 247.75 18.084 247.974 18.212C248.454 18.532 248.694 19.012 248.694 19.652C248.694 19.908 248.662 20.164 248.598 20.42C248.566 20.676 248.55 20.932 248.55 21.188C248.55 21.252 248.518 21.316 248.454 21.38L248.31 21.62C248.278 21.748 248.246 21.876 248.214 22.004C248.182 22.132 248.102 22.228 247.974 22.292C247.782 22.452 247.574 22.628 247.35 22.82C247.158 22.98 246.934 23.092 246.678 23.156C246.55 23.188 246.422 23.22 246.294 23.252C246.198 23.284 246.086 23.3 245.958 23.3C245.446 23.3 244.918 23.332 244.374 23.396C243.862 23.46 243.334 23.524 242.79 23.588C242.374 23.62 241.958 23.668 241.542 23.732C241.158 23.796 240.758 23.828 240.342 23.828C239.958 23.828 239.526 23.908 239.046 24.068C238.726 24.132 238.39 24.196 238.038 24.26C237.686 24.324 237.334 24.372 236.982 24.404C236.726 24.436 236.454 24.484 236.166 24.548C235.91 24.58 235.654 24.612 235.398 24.644L234.582 24.788C234.518 24.82 234.422 24.836 234.294 24.836C234.07 24.9 233.846 24.948 233.622 24.98C233.398 25.012 233.174 25.06 232.95 25.124C232.726 25.156 232.502 25.204 232.278 25.268C232.086 25.332 231.878 25.396 231.654 25.46C231.494 25.492 231.366 25.556 231.27 25.652C231.174 25.716 231.094 25.812 231.03 25.94C230.998 26.036 230.998 26.132 231.03 26.228C231.062 26.356 231.046 26.484 230.982 26.612C231.014 26.932 231.03 27.252 231.03 27.572C231.062 27.892 231.062 28.212 231.03 28.532C231.094 28.788 231.11 29.044 231.078 29.3C231.078 29.556 231.062 29.812 231.03 30.068C230.966 30.452 230.982 30.772 231.078 31.028C231.174 31.444 231.142 31.876 230.982 32.324C230.918 32.516 230.918 32.644 230.982 32.708C231.046 32.804 231.046 32.916 230.982 33.044V33.332C230.95 33.588 231.062 33.716 231.318 33.716H231.414C231.638 33.716 231.862 33.796 232.086 33.956C232.246 34.116 232.438 34.164 232.662 34.1L234.006 33.956C234.198 33.924 234.39 33.908 234.582 33.908C234.774 33.876 234.966 33.86 235.158 33.86C235.222 33.828 235.318 33.844 235.446 33.908C235.606 34.004 235.75 34.02 235.878 33.956C235.942 33.892 236.022 33.844 236.118 33.812C236.246 33.78 236.342 33.732 236.406 33.668C236.598 33.476 236.838 33.412 237.126 33.476C237.382 33.54 237.59 33.524 237.75 33.428C238.038 33.332 238.31 33.3 238.566 33.332C238.726 33.364 238.886 33.348 239.046 33.284C239.206 33.22 239.366 33.188 239.526 33.188C239.59 33.188 239.638 33.204 239.67 33.236C239.702 33.236 239.734 33.22 239.766 33.188C239.83 33.188 239.894 33.172 239.958 33.14C240.022 33.108 240.07 33.092 240.102 33.092C240.326 32.996 240.534 32.964 240.726 32.996C240.886 32.996 240.966 32.996 240.966 32.996C241.094 32.964 241.206 32.964 241.302 32.996C241.43 33.028 241.542 33.076 241.638 33.14C241.798 33.172 241.926 33.22 242.022 33.284C242.15 33.348 242.278 33.396 242.406 33.428C242.47 33.428 242.518 33.444 242.55 33.476C242.71 33.604 242.902 33.716 243.126 33.812C243.382 33.908 243.526 34.02 243.558 34.148C243.622 34.34 243.654 34.532 243.654 34.724C243.654 34.884 243.67 35.06 243.702 35.252C243.702 35.348 243.686 35.444 243.654 35.54C243.654 35.636 243.638 35.732 243.606 35.828C243.542 35.956 243.462 36.1 243.366 36.26C243.302 36.42 243.206 36.564 243.078 36.692C243.014 36.756 242.95 36.82 242.886 36.884C242.854 36.948 242.806 37.012 242.742 37.076C242.614 37.204 242.47 37.316 242.31 37.412C242.15 37.508 241.974 37.556 241.782 37.556C241.654 37.556 241.558 37.572 241.494 37.604C241.366 37.668 241.238 37.7 241.11 37.7C240.982 37.7 240.838 37.7 240.678 37.7C240.454 37.732 240.23 37.764 240.006 37.796C239.814 37.796 239.606 37.78 239.382 37.748C239.254 37.716 239.142 37.716 239.046 37.748C238.726 37.844 238.406 37.86 238.086 37.796C237.766 37.796 237.446 37.812 237.126 37.844C236.838 37.844 236.55 37.844 236.262 37.844H235.638C235.542 37.844 235.462 37.86 235.398 37.892C235.27 37.956 235.11 37.988 234.918 37.988C234.758 37.988 234.598 37.972 234.438 37.94H233.958C233.926 37.94 233.878 37.94 233.814 37.94C233.75 37.972 233.686 37.972 233.622 37.94C233.526 37.908 233.43 37.892 233.334 37.892C233.27 37.924 233.19 37.956 233.094 37.988C233.03 37.988 232.966 37.988 232.902 37.988C232.87 38.02 232.822 38.036 232.758 38.036C232.438 38.004 232.134 38.004 231.846 38.036C231.558 38.1 231.254 38.164 230.934 38.228Z" fill="currentColor"/>
<path d="M218.141 40.34C218.013 40.372 217.917 40.34 217.853 40.244C217.725 40.148 217.597 40.052 217.469 39.956C217.373 39.86 217.245 39.764 217.085 39.668C216.829 39.54 216.621 39.316 216.461 38.996C216.173 38.548 216.029 38.068 216.029 37.556C216.029 37.396 216.013 37.236 215.981 37.076C215.981 36.916 215.965 36.756 215.933 36.596C215.933 36.436 215.917 36.292 215.885 36.164C215.885 36.004 215.885 35.86 215.885 35.732C215.885 35.572 215.885 35.412 215.885 35.252C215.885 35.06 215.869 34.884 215.837 34.724C215.837 34.692 215.821 34.676 215.789 34.676C215.789 34.644 215.789 34.628 215.789 34.628C215.725 34.628 215.677 34.644 215.645 34.676L215.069 35.396C214.941 35.588 214.781 35.764 214.589 35.924C214.429 36.052 214.269 36.196 214.109 36.356C213.597 36.74 213.085 37.06 212.573 37.316C212.349 37.412 212.141 37.492 211.949 37.556C210.861 37.94 209.789 38.116 208.733 38.084C208.381 38.052 208.013 38.02 207.629 37.988C207.277 37.988 206.909 37.94 206.525 37.844C206.237 37.748 205.949 37.652 205.661 37.556C205.405 37.428 205.149 37.268 204.893 37.076C204.669 36.884 204.445 36.692 204.221 36.5C203.997 36.276 203.789 36.036 203.597 35.78C203.277 35.268 203.069 34.948 202.973 34.82C202.877 34.692 202.733 34.372 202.541 33.86L202.301 33.428C202.205 33.172 202.093 32.932 201.965 32.708C201.869 32.452 201.789 32.196 201.725 31.94L201.485 31.268C201.421 31.044 201.357 30.836 201.293 30.644C201.229 30.42 201.165 30.196 201.101 29.972C200.973 29.556 200.861 29.14 200.765 28.724C200.669 28.276 200.573 27.844 200.477 27.428L200.333 26.564C200.333 26.5 200.317 26.436 200.285 26.372C200.285 26.276 200.285 26.18 200.285 26.084L199.997 24.692C199.965 24.532 199.949 24.388 199.949 24.26C199.949 24.1 199.949 23.956 199.949 23.828C199.917 23.572 199.901 23.316 199.901 23.06C199.933 22.804 199.949 22.548 199.949 22.292C199.981 21.94 200.029 21.604 200.093 21.284C200.157 20.932 200.221 20.596 200.285 20.276C200.413 19.828 200.541 19.38 200.669 18.932C200.829 18.452 201.005 18.004 201.197 17.588C201.357 17.236 201.517 16.9 201.677 16.58C201.837 16.228 202.029 15.892 202.253 15.572C202.541 15.092 202.845 14.628 203.165 14.18C203.517 13.732 203.869 13.3 204.221 12.884C204.477 12.596 204.733 12.324 204.989 12.068C205.245 11.78 205.501 11.492 205.757 11.204C206.205 10.756 206.685 10.372 207.197 10.052C207.453 9.89198 207.709 9.79598 207.965 9.76398C208.061 9.73198 208.141 9.71598 208.205 9.71598C208.301 9.71598 208.381 9.69998 208.445 9.66798C208.797 9.60398 209.117 9.61998 209.405 9.71598C209.501 9.74798 209.597 9.77998 209.693 9.81198C209.821 9.84398 209.933 9.87598 210.029 9.90798C210.445 10.068 210.813 10.164 211.133 10.196C211.325 10.196 211.549 10.26 211.805 10.388C211.965 10.42 212.125 10.468 212.285 10.532C212.445 10.564 212.605 10.596 212.765 10.628C212.957 10.628 213.117 10.676 213.245 10.772C213.277 10.772 213.309 10.788 213.341 10.82C213.405 10.82 213.453 10.82 213.485 10.82C213.741 10.852 213.965 10.916 214.157 11.012C214.349 11.076 214.541 11.172 214.733 11.3C215.181 11.588 215.645 11.908 216.125 12.26C216.413 12.484 216.557 12.788 216.557 13.172V13.412C216.653 13.796 216.557 14.18 216.269 14.564C216.109 14.852 215.981 15.044 215.885 15.14C215.821 15.204 215.629 15.316 215.309 15.476C215.213 15.508 215.101 15.556 214.973 15.62C214.877 15.652 214.749 15.668 214.589 15.668C214.525 15.668 214.445 15.684 214.349 15.716C214.285 15.716 214.221 15.716 214.157 15.716C214.061 15.748 213.965 15.748 213.869 15.716C213.773 15.684 213.677 15.668 213.581 15.668C213.549 15.7 213.501 15.684 213.437 15.62L212.717 15.044C212.205 14.596 211.613 14.34 210.941 14.276C210.813 14.244 210.685 14.228 210.557 14.228C210.429 14.228 210.285 14.212 210.125 14.18C209.709 14.18 209.373 14.292 209.117 14.516L208.781 14.852C208.493 15.172 208.189 15.492 207.869 15.812C207.581 16.132 207.293 16.452 207.005 16.772C206.781 16.996 206.589 17.252 206.429 17.54C206.269 17.828 206.109 18.116 205.949 18.404C205.437 19.396 205.053 20.452 204.797 21.572C204.765 21.764 204.733 21.956 204.701 22.148C204.669 22.308 204.637 22.468 204.605 22.628C204.605 22.788 204.605 22.948 204.605 23.108C204.605 23.268 204.621 23.428 204.653 23.588C204.685 23.716 204.701 23.844 204.701 23.972C204.701 24.068 204.717 24.18 204.749 24.308L204.893 25.46C204.925 25.652 204.957 25.86 204.989 26.084C205.053 26.276 205.101 26.468 205.133 26.66C205.453 27.908 205.837 29.172 206.285 30.452C206.445 30.932 206.637 31.348 206.861 31.7L207.149 32.132C207.245 32.26 207.341 32.388 207.437 32.516C207.533 32.612 207.629 32.708 207.725 32.804C207.917 32.932 208.077 33.012 208.205 33.044C208.685 33.14 209.181 33.188 209.693 33.188C210.333 33.124 210.877 32.916 211.325 32.564C211.549 32.404 211.741 32.228 211.901 32.036C212.093 31.844 212.269 31.636 212.429 31.412C212.813 30.964 213.149 30.484 213.437 29.972C213.533 29.78 213.517 29.588 213.389 29.396C213.197 29.076 212.957 28.82 212.669 28.628C212.317 28.372 211.949 28.164 211.565 28.004C211.213 27.812 210.813 27.7 210.365 27.668L210.125 27.572C209.869 27.476 209.597 27.476 209.309 27.572C209.085 27.668 208.845 27.716 208.589 27.716C208.365 27.684 208.125 27.652 207.869 27.62C207.293 27.46 206.797 27.204 206.381 26.852C206.253 26.692 206.141 26.532 206.045 26.372C205.981 26.212 205.901 26.068 205.805 25.94C205.805 25.876 205.789 25.812 205.757 25.748C205.757 25.684 205.773 25.636 205.805 25.604C205.805 25.444 205.805 25.284 205.805 25.124C205.837 24.964 205.869 24.804 205.901 24.644C205.901 24.612 205.933 24.5 205.997 24.308C206.061 24.148 206.141 24.004 206.237 23.876C206.365 23.716 206.493 23.572 206.621 23.444C207.133 22.964 207.693 22.66 208.301 22.532C208.653 22.436 209.005 22.372 209.357 22.34C209.709 22.276 210.045 22.228 210.365 22.196H214.397C214.653 22.196 214.925 22.196 215.213 22.196C215.501 22.196 215.789 22.18 216.077 22.148C216.333 22.116 216.573 22.1 216.797 22.1C217.053 22.1 217.309 22.1 217.565 22.1C217.853 22.1 218.109 22.148 218.333 22.244C218.685 22.34 218.957 22.548 219.149 22.868C219.245 22.996 219.341 23.14 219.437 23.3C219.533 23.46 219.597 23.62 219.629 23.78C219.661 23.812 219.677 23.86 219.677 23.924C219.677 23.956 219.693 24.004 219.725 24.068L220.061 25.844C220.125 26.1 220.173 26.372 220.205 26.66C220.237 26.948 220.269 27.236 220.301 27.524C220.301 27.684 220.301 27.86 220.301 28.052C220.333 28.212 220.349 28.372 220.349 28.532C220.349 28.66 220.349 28.804 220.349 28.964C220.381 29.124 220.397 29.284 220.397 29.444V31.652C220.397 31.876 220.397 32.132 220.397 32.42C220.429 32.676 220.461 32.932 220.493 33.188C220.525 33.316 220.541 33.444 220.541 33.572C220.541 33.7 220.541 33.844 220.541 34.004C220.509 34.324 220.525 34.66 220.589 35.012C220.653 35.332 220.701 35.668 220.733 36.02C220.765 36.18 220.797 36.356 220.829 36.548C220.893 36.708 220.941 36.884 220.973 37.076C221.005 37.204 221.021 37.348 221.021 37.508C221.053 37.636 221.069 37.78 221.069 37.94C221.069 38.068 221.053 38.196 221.021 38.324C221.021 38.484 220.973 38.628 220.877 38.756C220.813 38.82 220.749 38.916 220.685 39.044C220.557 39.396 220.285 39.684 219.869 39.908C219.549 40.036 219.213 40.132 218.861 40.196C218.573 40.196 218.333 40.244 218.141 40.34Z" fill="currentColor"/>
<path d="M191.323 41.396C191.035 41.396 190.779 41.284 190.555 41.06C190.491 40.964 190.427 40.868 190.363 40.772C190.299 40.676 190.235 40.58 190.171 40.484C189.883 39.812 189.739 39.108 189.739 38.372L189.595 37.22C189.499 36.772 189.419 36.324 189.355 35.876C189.291 35.428 189.179 34.996 189.019 34.58L188.731 33.764C188.731 33.7 188.715 33.636 188.683 33.572C188.683 33.508 188.667 33.444 188.635 33.38L187.915 30.836C187.883 30.772 187.851 30.692 187.819 30.596C187.819 30.5 187.787 30.42 187.723 30.356C187.627 30.164 187.547 29.972 187.483 29.78C187.451 29.556 187.403 29.332 187.339 29.108C187.307 28.948 187.275 28.804 187.243 28.676C187.211 28.516 187.163 28.356 187.099 28.196C187.035 28.004 186.971 27.892 186.907 27.86C186.843 27.796 186.699 27.796 186.475 27.86C186.315 27.892 186.139 27.924 185.947 27.956C185.787 27.956 185.627 27.988 185.467 28.052C185.339 28.084 185.179 28.116 184.987 28.148C184.827 28.148 184.667 28.164 184.507 28.196L183.835 28.34C183.675 28.372 183.499 28.42 183.307 28.484C183.147 28.516 182.987 28.532 182.827 28.532L181.963 28.676C181.707 28.74 181.435 28.804 181.147 28.868C180.859 28.932 180.587 28.996 180.331 29.06C179.563 29.252 178.795 29.396 178.027 29.492C177.771 29.556 177.627 29.668 177.595 29.828C177.563 29.828 177.547 29.844 177.547 29.876C177.355 30.388 177.131 30.9 176.875 31.412C176.651 31.892 176.411 32.388 176.155 32.9C176.091 33.028 176.027 33.156 175.963 33.284C175.931 33.38 175.883 33.492 175.819 33.62C175.787 33.684 175.755 33.764 175.723 33.86C175.691 33.924 175.659 33.988 175.627 34.052C175.435 34.276 175.339 34.548 175.339 34.868C175.307 35.06 175.243 35.252 175.147 35.444C175.051 35.604 174.955 35.764 174.859 35.924C174.827 36.02 174.763 36.068 174.667 36.068C174.539 36.1 174.411 36.148 174.283 36.212C174.155 36.276 174.011 36.34 173.851 36.404C173.755 36.436 173.659 36.436 173.563 36.404C173.499 36.372 173.419 36.34 173.323 36.308C173.259 36.244 173.195 36.212 173.131 36.212C172.779 36.18 172.523 35.972 172.363 35.588C172.107 35.076 171.931 34.564 171.835 34.052C171.803 33.924 171.803 33.812 171.835 33.716C171.899 33.62 171.947 33.524 171.979 33.428C172.171 33.3 172.283 33.156 172.315 32.996V32.948C172.315 32.532 172.395 32.148 172.555 31.796C172.747 31.412 172.907 31.044 173.035 30.692C173.099 30.5 173.179 30.308 173.275 30.116C173.371 29.924 173.467 29.732 173.563 29.54C173.691 29.316 173.787 29.108 173.851 28.916C173.947 28.692 174.027 28.468 174.091 28.244C174.187 27.988 174.187 27.748 174.091 27.524C174.027 27.332 173.995 27.156 173.995 26.996C173.995 26.804 174.011 26.612 174.043 26.42C174.043 26.068 174.171 25.764 174.427 25.508C174.555 25.348 174.683 25.22 174.811 25.124C174.971 24.996 175.115 24.868 175.243 24.74C175.531 24.452 175.755 24.068 175.915 23.588C176.043 23.172 176.139 22.756 176.203 22.34C176.299 21.892 176.395 21.46 176.491 21.044C176.555 20.628 176.619 20.228 176.683 19.844C176.779 19.428 176.875 19.028 176.971 18.644C177.003 18.484 177.035 18.34 177.067 18.212C177.131 18.052 177.179 17.908 177.211 17.78C177.307 17.524 177.403 17.284 177.499 17.06C177.595 16.804 177.659 16.548 177.691 16.292C177.755 16.164 177.755 16.052 177.691 15.956C177.659 15.796 177.659 15.652 177.691 15.524C177.755 15.396 177.803 15.268 177.835 15.14C177.931 14.916 177.995 14.692 178.027 14.468C178.091 14.244 178.171 14.02 178.267 13.796C178.427 13.38 178.555 13.044 178.651 12.788C178.779 12.5 178.891 12.18 178.987 11.828C179.051 11.636 179.115 11.46 179.179 11.3C179.275 11.108 179.339 10.916 179.371 10.724C179.467 10.436 179.547 10.148 179.611 9.85997C179.675 9.53997 179.707 9.23597 179.707 8.94797C179.771 8.69197 179.835 8.51597 179.899 8.41997C180.059 8.09997 180.251 7.82797 180.475 7.60397C180.731 7.37997 180.971 7.15597 181.195 6.93197C181.355 6.83597 181.515 6.77197 181.675 6.73997C181.835 6.67597 181.995 6.69197 182.155 6.78797C182.283 6.85197 182.363 6.88397 182.395 6.88397C182.683 6.85197 182.923 6.91597 183.115 7.07597C183.307 7.23597 183.467 7.42797 183.595 7.65197C183.659 7.71597 183.707 7.79597 183.739 7.89197C183.771 7.98797 183.803 8.06797 183.835 8.13197C183.995 8.38797 184.075 8.64397 184.075 8.89997C184.075 9.02797 184.091 9.17197 184.123 9.33197C184.155 9.45997 184.187 9.60397 184.219 9.76397C184.315 9.95597 184.459 10.052 184.651 10.052C184.683 10.02 184.715 10.02 184.747 10.052C184.779 10.084 184.795 10.116 184.795 10.148C184.955 10.34 185.003 10.548 184.939 10.772C184.875 11.028 184.859 11.284 184.891 11.54C184.955 11.764 185.019 12.004 185.083 12.26C185.211 12.58 185.339 12.9 185.467 13.22C185.595 13.54 185.723 13.86 185.851 14.18C186.011 14.532 186.171 14.884 186.331 15.236C186.491 15.588 186.635 15.94 186.763 16.292C186.923 16.74 187.083 17.188 187.243 17.636C187.435 18.084 187.643 18.532 187.867 18.98L188.011 19.508C188.043 19.636 188.075 19.764 188.107 19.892C188.171 20.02 188.219 20.148 188.251 20.276C188.315 20.372 188.363 20.468 188.395 20.564C188.459 20.66 188.523 20.74 188.587 20.804C188.747 21.028 188.843 21.268 188.875 21.524C188.971 21.844 189.115 22.132 189.307 22.388C189.371 22.484 189.467 22.532 189.595 22.532C190.075 22.468 190.555 22.42 191.035 22.388C191.515 22.324 191.995 22.228 192.475 22.1C192.827 22.004 193.163 21.956 193.483 21.956C194.091 21.956 194.651 22.164 195.163 22.58C195.771 23.06 196.091 23.668 196.123 24.404C196.123 24.564 196.139 24.692 196.171 24.788C196.171 25.012 196.107 25.188 195.979 25.316C195.947 25.412 195.883 25.508 195.787 25.604C195.723 25.7 195.659 25.796 195.595 25.892C195.531 26.02 195.467 26.116 195.403 26.18L195.115 26.42C195.083 26.484 195.035 26.564 194.971 26.66C194.907 26.724 194.827 26.772 194.731 26.804C194.603 26.836 194.475 26.884 194.347 26.948C194.219 26.98 194.075 26.996 193.915 26.996C193.339 27.06 192.827 27.044 192.379 26.948H191.611C191.547 26.948 191.451 26.98 191.323 27.044C191.195 27.108 191.131 27.188 191.131 27.284V27.476C191.227 27.764 191.291 28.068 191.323 28.388C191.387 28.676 191.483 28.948 191.611 29.204C191.611 29.332 191.643 29.46 191.707 29.588C191.867 29.876 191.995 30.18 192.091 30.5C192.187 30.788 192.267 31.092 192.331 31.412C192.331 31.476 192.363 31.604 192.427 31.796C192.523 32.02 192.603 32.26 192.667 32.516C192.731 32.74 192.779 32.98 192.811 33.236C192.811 33.428 192.859 33.604 192.955 33.764C193.083 34.052 193.179 34.34 193.243 34.628C193.307 34.916 193.355 35.22 193.387 35.54C193.419 35.572 193.435 35.636 193.435 35.732C193.435 35.796 193.451 35.86 193.483 35.924C193.643 36.276 193.755 36.66 193.819 37.076C193.883 37.46 193.963 37.844 194.059 38.228C194.123 38.42 194.155 38.612 194.155 38.804C194.187 39.028 194.203 39.252 194.203 39.476C194.203 39.636 194.155 39.812 194.059 40.004C193.963 40.1 193.915 40.148 193.915 40.148C193.723 40.18 193.611 40.292 193.579 40.484L193.435 40.772C193.371 40.9 193.275 40.98 193.147 41.012C193.019 41.012 192.907 41.06 192.811 41.156C192.683 41.284 192.507 41.348 192.283 41.348C192.155 41.348 191.995 41.348 191.803 41.348C191.643 41.348 191.483 41.364 191.323 41.396ZM179.755 23.972C179.947 23.94 180.139 23.908 180.331 23.876C180.555 23.844 180.795 23.812 181.051 23.78C181.211 23.748 181.419 23.716 181.675 23.684C181.931 23.652 182.171 23.62 182.395 23.588C182.619 23.524 182.843 23.492 183.067 23.492C183.291 23.46 183.515 23.428 183.739 23.396C183.931 23.332 184.123 23.3 184.315 23.3C184.507 23.268 184.699 23.236 184.891 23.204C185.179 23.14 185.291 22.98 185.227 22.724C185.195 22.468 185.131 22.212 185.035 21.956C184.971 21.668 184.827 21.428 184.603 21.236C184.539 21.172 184.507 21.076 184.507 20.948V20.804C184.443 20.548 184.363 20.308 184.267 20.084C184.203 19.828 184.123 19.588 184.027 19.364C183.963 19.108 183.883 18.884 183.787 18.692C183.723 18.468 183.643 18.244 183.547 18.02L182.971 16.292C182.875 16.068 182.779 15.844 182.683 15.62C182.619 15.396 182.555 15.172 182.491 14.948L182.347 14.756H182.203L182.107 14.9C181.947 15.38 181.755 15.86 181.531 16.34C181.339 16.82 181.163 17.332 181.003 17.876C181.003 17.94 180.987 18.02 180.955 18.116C180.923 18.212 180.891 18.308 180.859 18.404C180.731 18.724 180.603 19.076 180.475 19.46C180.379 19.844 180.299 20.228 180.235 20.612C180.203 20.836 180.171 21.06 180.139 21.284C180.107 21.476 180.059 21.684 179.995 21.908L179.563 23.78C179.531 23.812 179.547 23.86 179.611 23.924C179.675 23.956 179.723 23.972 179.755 23.972Z" fill="currentColor"/>
<path d="M163.92 40.724H163.68C163.584 40.724 163.472 40.708 163.344 40.676C163.248 40.676 163.136 40.676 163.008 40.676C162.784 40.708 162.592 40.66 162.432 40.532C162.304 40.436 162.16 40.308 162 40.148C161.936 40.084 161.856 40.004 161.76 39.908C161.696 39.844 161.616 39.796 161.52 39.764C161.456 39.732 161.392 39.652 161.328 39.524C161.296 39.46 161.248 39.38 161.184 39.284C161.152 39.188 161.104 39.092 161.04 38.996C160.976 38.836 160.96 38.66 160.992 38.468C161.024 38.372 161.04 38.276 161.04 38.18C161.072 38.116 161.088 38.036 161.088 37.94C161.088 37.62 161.088 37.316 161.088 37.028C161.088 36.708 161.056 36.388 160.992 36.068C160.96 35.972 160.944 35.876 160.944 35.78C160.944 35.652 160.928 35.524 160.896 35.396C160.896 35.172 160.88 34.996 160.848 34.868C160.848 34.708 160.832 34.564 160.8 34.436C160.8 34.308 160.8 34.18 160.8 34.052C160.768 33.828 160.752 33.62 160.752 33.428C160.752 33.236 160.72 33.028 160.656 32.804V32.66C160.656 32.244 160.624 31.844 160.56 31.46C160.528 31.044 160.512 30.628 160.512 30.212C160.512 30.02 160.496 29.876 160.464 29.78C160.432 29.492 160.4 29.204 160.368 28.916C160.368 28.596 160.368 28.276 160.368 27.956C160.368 27.668 160.368 27.38 160.368 27.092C160.368 26.772 160.336 26.468 160.272 26.18C160.24 26.116 160.224 26.036 160.224 25.94C160.224 25.844 160.224 25.764 160.224 25.7C160.224 24.388 160.224 23.076 160.224 21.764C160.224 20.452 160.24 19.156 160.272 17.876C160.272 17.716 160.272 17.556 160.272 17.396C160.304 17.236 160.32 17.076 160.32 16.916C160.32 16.82 160.32 16.724 160.32 16.628C160.352 16.532 160.368 16.452 160.368 16.388C160.368 16.036 160.368 15.684 160.368 15.332C160.4 14.948 160.432 14.58 160.464 14.228C160.528 14.132 160.528 14.004 160.464 13.844C160.432 13.812 160.384 13.796 160.32 13.796L160.176 13.94C160.112 14.036 160.032 14.132 159.936 14.228C159.84 14.324 159.76 14.42 159.696 14.516C159.568 14.708 159.424 14.916 159.264 15.14C159.136 15.332 158.992 15.54 158.832 15.764C158.608 16.148 158.368 16.548 158.112 16.964C157.856 17.348 157.664 17.764 157.536 18.212C157.504 18.276 157.472 18.356 157.44 18.452C157.408 18.516 157.376 18.58 157.344 18.644C157.216 18.964 157.072 19.284 156.912 19.604C156.784 19.892 156.656 20.212 156.528 20.564C156.336 20.98 156.064 21.364 155.712 21.716C155.648 21.78 155.584 21.812 155.52 21.812C155.36 21.908 155.184 22.004 154.992 22.1C154.8 22.164 154.592 22.18 154.368 22.148H154.08C153.792 22.212 153.552 22.148 153.36 21.956C153.136 21.892 152.944 21.78 152.784 21.62C152.656 21.46 152.512 21.284 152.352 21.092C152.224 20.932 152.112 20.74 152.016 20.516C151.952 20.292 151.92 20.068 151.92 19.844C151.888 19.78 151.872 19.7 151.872 19.604C151.872 19.508 151.872 19.428 151.872 19.364C151.84 19.3 151.808 19.236 151.776 19.172C151.744 19.076 151.728 19.012 151.728 18.98C151.728 18.916 151.696 18.82 151.632 18.692C151.568 18.564 151.44 18.308 151.248 17.924C151.056 17.54 150.96 17.364 150.96 17.396C150.864 17.236 150.768 17.06 150.672 16.868C150.576 16.676 150.464 16.5 150.336 16.34L150.048 15.812C149.984 15.812 149.936 15.796 149.904 15.764L149.856 15.812C149.856 15.908 149.856 16.004 149.856 16.1C149.856 16.196 149.872 16.292 149.904 16.388C149.968 16.74 150 17.092 150 17.444C150 17.796 149.968 18.148 149.904 18.5C149.904 18.692 149.92 18.852 149.952 18.98C149.984 19.044 150 19.156 150 19.316C150 19.508 150 19.7 150 19.892C150.032 20.084 150.032 20.276 150 20.468C149.968 20.628 149.952 20.804 149.952 20.996C149.984 21.156 150.016 21.316 150.048 21.476V21.956C149.984 22.148 149.984 22.356 150.048 22.58C150.08 22.74 150.08 22.916 150.048 23.108C150.048 23.268 150.064 23.428 150.096 23.588C150.096 23.748 150.064 23.956 150 24.212C149.808 24.98 149.856 25.716 150.144 26.42C150.176 26.548 150.208 26.676 150.24 26.804C150.272 26.9 150.272 27.012 150.24 27.14C150.24 27.236 150.24 27.332 150.24 27.428C150.24 27.524 150.256 27.62 150.288 27.716C150.352 27.844 150.384 27.972 150.384 28.1C150.416 28.452 150.432 28.724 150.432 28.916C150.464 29.108 150.496 29.252 150.528 29.348C150.592 29.7 150.656 30.068 150.72 30.452C150.784 30.804 150.848 31.156 150.912 31.508C150.976 31.924 151.04 32.34 151.104 32.756C151.2 33.14 151.248 33.54 151.248 33.956C151.248 34.084 151.264 34.18 151.296 34.244C151.36 34.5 151.392 34.772 151.392 35.06C151.392 35.316 151.408 35.572 151.44 35.828C151.44 36.18 151.36 36.452 151.2 36.644C151.136 36.772 151.104 36.852 151.104 36.884C150.816 37.492 150.304 37.844 149.568 37.94C149.472 37.972 149.376 37.988 149.28 37.988C149.184 37.988 149.088 37.988 148.992 37.988C148.64 38.052 148.384 37.988 148.224 37.796C148.16 37.732 148.096 37.7 148.032 37.7C147.872 37.732 147.712 37.636 147.552 37.412C147.456 37.252 147.312 37.108 147.12 36.98C147.024 36.884 146.944 36.724 146.88 36.5C146.848 36.436 146.816 36.372 146.784 36.308C146.784 36.244 146.784 36.18 146.784 36.116C146.752 35.668 146.704 35.236 146.64 34.82C146.576 34.372 146.528 33.94 146.496 33.524L146.448 33.044C146.416 32.916 146.4 32.804 146.4 32.708C146.4 32.612 146.384 32.5 146.352 32.372V32.084C146.256 31.636 146.208 31.188 146.208 30.74C146.208 30.26 146.224 29.796 146.256 29.348C146.288 29.06 146.304 28.772 146.304 28.484C146.304 28.164 146.32 27.86 146.352 27.572V26.468C146.352 26.308 146.352 26.148 146.352 25.988C146.352 25.796 146.336 25.62 146.304 25.46C146.272 25.268 146.256 25.076 146.256 24.884C146.256 24.692 146.256 24.5 146.256 24.308V22.1C146.224 21.844 146.208 21.588 146.208 21.332C146.208 21.044 146.208 20.772 146.208 20.516C146.208 20.42 146.208 20.324 146.208 20.228C146.208 20.1 146.192 19.988 146.16 19.892C146.16 19.732 146.144 19.588 146.112 19.46C146.112 19.3 146.096 19.156 146.064 19.028V18.692C146 18.404 145.968 18.132 145.968 17.876C145.968 17.588 145.968 17.3 145.968 17.012C145.968 16.756 145.968 16.5 145.968 16.244C145.968 15.956 145.936 15.7 145.872 15.476C145.84 15.38 145.824 15.284 145.824 15.188C145.824 15.092 145.824 14.996 145.824 14.9C145.824 14.676 145.824 14.468 145.824 14.276C145.824 14.052 145.792 13.828 145.728 13.604C145.696 13.54 145.68 13.428 145.68 13.268V10.868C145.68 10.708 145.68 10.564 145.68 10.436C145.68 10.276 145.648 10.132 145.584 10.004C145.488 9.68397 145.504 9.31597 145.632 8.89997C145.696 8.73997 145.76 8.62797 145.824 8.56397C145.888 8.46797 145.952 8.37197 146.016 8.27596C146.08 8.17997 146.128 8.08397 146.16 7.98796C146.224 7.89196 146.272 7.84396 146.304 7.84396C146.432 7.81196 146.528 7.76396 146.592 7.69996C146.688 7.63596 146.768 7.57196 146.832 7.50797L147.12 7.36396C147.184 7.33196 147.28 7.31597 147.408 7.31597C147.568 7.34797 147.728 7.37996 147.888 7.41196C148.08 7.41196 148.256 7.42797 148.416 7.45997C148.608 7.45997 148.752 7.53996 148.848 7.69996C149.008 7.92396 149.168 8.14796 149.328 8.37197C149.488 8.59596 149.616 8.83596 149.712 9.09197C149.808 9.31596 149.936 9.50797 150.096 9.66797C150.288 9.92397 150.48 10.18 150.672 10.436C150.864 10.692 151.072 10.948 151.296 11.204C151.392 11.3 151.472 11.412 151.536 11.54C151.632 11.668 151.712 11.796 151.776 11.924C151.936 12.148 152.08 12.372 152.208 12.596C152.368 12.788 152.528 12.996 152.688 13.22L153.408 14.372C153.472 14.5 153.536 14.628 153.6 14.756C153.664 14.852 153.728 14.948 153.792 15.044C153.856 15.204 153.952 15.22 154.08 15.092C154.208 14.932 154.336 14.772 154.464 14.612C154.624 14.42 154.768 14.244 154.896 14.084C155.184 13.732 155.472 13.364 155.76 12.98C156.048 12.596 156.352 12.228 156.672 11.876L156.96 11.444C157.184 11.124 157.392 10.82 157.584 10.532C157.808 10.212 158.016 9.89196 158.208 9.57196C158.432 9.21997 158.624 8.86796 158.784 8.51596C158.976 8.16396 159.136 7.81197 159.264 7.45997L159.84 6.16397C160.032 5.77996 160.304 5.45996 160.656 5.20396C161.136 4.81996 161.664 4.67596 162.24 4.77196C162.464 4.80396 162.672 4.86797 162.864 4.96396C163.056 5.02796 163.248 5.09197 163.44 5.15596C163.632 5.21997 163.76 5.36397 163.824 5.58796C163.888 5.68397 163.936 5.77996 163.968 5.87596C164 5.97196 164.016 6.06796 164.016 6.16397C164.048 6.38796 164.096 6.59596 164.16 6.78797C164.224 6.94797 164.272 7.13997 164.304 7.36396L164.352 7.84396C164.416 8.13196 164.48 8.41996 164.544 8.70796C164.64 8.99596 164.72 9.28396 164.784 9.57196V9.66797C164.816 9.98797 164.848 10.308 164.88 10.628C164.944 10.916 164.96 11.22 164.928 11.54V12.644C164.928 12.804 164.928 12.964 164.928 13.124C164.928 13.284 164.912 13.444 164.88 13.604C164.848 13.828 164.832 14.052 164.832 14.276C164.832 14.468 164.832 14.676 164.832 14.9C164.8 15.028 164.784 15.156 164.784 15.284C164.784 15.412 164.768 15.54 164.736 15.668C164.704 15.796 164.688 15.924 164.688 16.052C164.688 16.148 164.688 16.276 164.688 16.436V17.78C164.688 18.004 164.672 18.212 164.64 18.404C164.64 18.596 164.624 18.804 164.592 19.028C164.56 19.156 164.544 19.284 164.544 19.412C164.544 19.508 164.544 19.62 164.544 19.748V22.676C164.544 22.9 164.544 23.124 164.544 23.348C164.576 23.572 164.608 23.796 164.64 24.02C164.672 24.18 164.688 24.356 164.688 24.548C164.688 24.708 164.688 24.868 164.688 25.028C164.72 25.252 164.736 25.476 164.736 25.7C164.736 25.892 164.752 26.116 164.784 26.372V26.9C164.816 27.156 164.832 27.428 164.832 27.716C164.832 27.972 164.832 28.228 164.832 28.484V29.108C164.896 29.332 164.928 29.572 164.928 29.828C164.928 30.084 164.944 30.34 164.976 30.596V30.932C165.04 31.124 165.072 31.316 165.072 31.508C165.072 31.7 165.088 31.892 165.12 32.084L165.264 33.812C165.296 33.94 165.312 34.068 165.312 34.196C165.344 34.292 165.36 34.404 165.36 34.532C165.392 34.66 165.408 34.788 165.408 34.916C165.408 35.012 165.424 35.124 165.456 35.252C165.456 35.284 165.456 35.332 165.456 35.396C165.488 35.46 165.504 35.524 165.504 35.588C165.504 35.812 165.52 36.052 165.552 36.308C165.616 36.564 165.664 36.82 165.696 37.076L165.888 38.42C165.888 38.612 165.872 38.74 165.84 38.804C165.808 38.996 165.728 39.172 165.6 39.332C165.504 39.524 165.424 39.7 165.36 39.86C165.36 39.892 165.344 39.908 165.312 39.908C165.088 40.1 164.864 40.26 164.64 40.388C164.416 40.548 164.176 40.66 163.92 40.724Z" fill="currentColor"/>
<path d="M137.003 38.372C136.811 38.372 136.683 38.356 136.619 38.324C136.491 38.26 136.379 38.212 136.283 38.18C136.187 38.148 136.091 38.116 135.995 38.084C135.899 38.02 135.803 37.956 135.707 37.892C135.643 37.796 135.579 37.7 135.515 37.604C135.451 37.54 135.387 37.508 135.323 37.508C135.131 37.508 135.035 37.412 135.035 37.22C135.003 37.028 134.971 36.836 134.939 36.644C134.907 36.452 134.875 36.26 134.843 36.068C134.811 35.78 134.779 35.492 134.747 35.204C134.747 34.916 134.715 34.644 134.651 34.388V33.956C134.651 33.828 134.635 33.716 134.603 33.62C134.603 33.524 134.603 33.412 134.603 33.284C134.539 33.124 134.539 32.996 134.603 32.9C134.667 32.324 134.667 31.748 134.603 31.172C134.571 31.012 134.555 30.852 134.555 30.692C134.555 30.532 134.539 30.372 134.507 30.212C134.507 29.892 134.507 29.572 134.507 29.252C134.507 28.9 134.475 28.564 134.411 28.244V27.476C134.411 27.22 134.395 26.98 134.363 26.756C134.363 26.532 134.347 26.308 134.315 26.084C134.283 25.796 134.251 25.508 134.219 25.22C134.219 24.932 134.203 24.644 134.171 24.356C134.139 24.292 134.123 24.18 134.123 24.02C134.091 23.86 134.059 23.7 134.027 23.54C134.027 23.348 134.027 23.172 134.027 23.012L133.883 20.612C133.851 20.356 133.819 20.116 133.787 19.892C133.787 19.636 133.787 19.396 133.787 19.172C133.755 18.788 133.723 18.404 133.691 18.02C133.659 17.636 133.627 17.268 133.595 16.916C133.595 16.852 133.579 16.788 133.547 16.724C133.547 16.66 133.547 16.612 133.547 16.58C133.547 16.196 133.531 15.812 133.499 15.428C133.467 15.044 133.435 14.644 133.403 14.228L133.259 12.884C133.163 12.372 133.147 11.812 133.211 11.204C133.211 10.916 133.323 10.676 133.547 10.484C133.611 10.42 133.659 10.388 133.691 10.388C133.723 10.356 133.755 10.324 133.787 10.292C133.947 10.26 134.027 10.148 134.027 9.95597C134.027 9.89197 134.091 9.85997 134.219 9.85997H134.459C134.491 9.85997 134.507 9.85997 134.507 9.85997C134.539 9.82797 134.571 9.81197 134.603 9.81197C134.667 9.77997 134.715 9.74797 134.747 9.71597C134.811 9.65197 134.859 9.61996 134.891 9.61996C134.955 9.61996 135.019 9.63597 135.083 9.66797C135.147 9.66797 135.211 9.68397 135.275 9.71597C135.339 9.71597 135.387 9.69997 135.419 9.66797C135.579 9.63597 135.739 9.65197 135.899 9.71597C136.091 9.74797 136.251 9.79597 136.379 9.85997C136.571 9.89197 136.715 10.02 136.811 10.244C136.907 10.532 136.987 10.82 137.051 11.108C137.147 11.364 137.211 11.636 137.243 11.924V12.308C137.307 12.532 137.339 12.772 137.339 13.028C137.339 13.252 137.339 13.492 137.339 13.748C137.339 13.972 137.339 14.196 137.339 14.42C137.371 14.612 137.403 14.804 137.435 14.996C137.435 15.092 137.435 15.188 137.435 15.284C137.435 15.38 137.451 15.476 137.483 15.572C137.483 15.764 137.483 15.956 137.483 16.148C137.515 16.34 137.547 16.548 137.579 16.772C137.611 17.124 137.643 17.492 137.675 17.876C137.707 18.26 137.723 18.644 137.723 19.028C137.723 19.188 137.723 19.364 137.723 19.556C137.723 19.716 137.739 19.876 137.771 20.036C137.803 20.132 137.819 20.228 137.819 20.324C137.819 20.42 137.819 20.516 137.819 20.612V21.572C137.819 21.764 137.835 21.924 137.867 22.052C137.931 22.276 137.947 22.5 137.915 22.724C137.915 22.916 137.931 23.124 137.963 23.348L138.107 25.556C138.139 25.876 138.155 26.212 138.155 26.564C138.187 26.884 138.203 27.22 138.203 27.572C138.203 27.7 138.203 27.844 138.203 28.004C138.203 28.132 138.219 28.26 138.251 28.388C138.283 28.484 138.299 28.58 138.299 28.676C138.299 28.772 138.299 28.868 138.299 28.964C138.331 28.996 138.331 29.06 138.299 29.156C138.299 29.22 138.315 29.284 138.347 29.348C138.411 29.572 138.443 29.796 138.443 30.02C138.443 30.244 138.443 30.484 138.443 30.74C138.443 30.868 138.443 31.012 138.443 31.172C138.475 31.3 138.491 31.444 138.491 31.604C138.523 31.764 138.539 31.94 138.539 32.132C138.539 32.324 138.539 32.5 138.539 32.66C138.571 32.82 138.587 32.996 138.587 33.188C138.587 33.348 138.603 33.508 138.635 33.668C138.667 33.732 138.683 33.796 138.683 33.86C138.683 34.212 138.715 34.564 138.779 34.916C138.843 35.268 138.907 35.62 138.971 35.972C139.003 36.068 139.019 36.18 139.019 36.308C139.019 36.404 139.019 36.5 139.019 36.596C139.019 36.692 138.987 36.772 138.923 36.836C138.795 36.932 138.699 37.124 138.635 37.412C138.635 37.508 138.587 37.588 138.491 37.652C138.267 37.748 138.075 37.876 137.915 38.036C137.659 38.26 137.355 38.372 137.003 38.372Z" fill="currentColor"/>
<path d="M124.125 21.86C124.029 21.86 123.933 21.812 123.837 21.716C123.677 21.556 123.565 21.316 123.501 20.996C123.469 20.9 123.453 20.724 123.453 20.468C123.453 20.276 123.437 20.1 123.405 19.94C123.405 19.748 123.389 19.556 123.357 19.364C123.293 19.172 123.229 19.028 123.165 18.932L122.877 18.452C122.749 18.26 122.621 18.068 122.493 17.876C122.397 17.652 122.301 17.444 122.205 17.252C122.045 16.996 121.933 16.724 121.869 16.436C121.805 16.116 121.757 15.796 121.725 15.476V15.236C121.693 15.012 121.677 14.82 121.677 14.66C121.709 14.5 121.741 14.356 121.773 14.228C121.869 13.748 122.045 13.364 122.301 13.076C122.365 12.98 122.429 12.884 122.493 12.788C122.589 12.692 122.653 12.58 122.685 12.452C122.909 12.132 123.181 11.924 123.501 11.828L124.509 11.54C124.573 11.508 124.669 11.492 124.797 11.492C125.149 11.428 125.469 11.428 125.757 11.492C126.077 11.524 126.365 11.62 126.621 11.78C126.813 11.908 126.989 12.02 127.149 12.116C127.341 12.212 127.517 12.324 127.677 12.452C127.837 12.58 127.981 12.708 128.109 12.836C128.237 12.964 128.365 13.108 128.493 13.268C128.557 13.332 128.605 13.412 128.637 13.508C128.669 13.604 128.701 13.684 128.733 13.748C128.797 13.876 128.845 14.02 128.877 14.18C128.909 14.308 128.957 14.452 129.021 14.612C129.021 14.708 129.021 14.756 129.021 14.756C128.989 14.98 128.989 15.204 129.021 15.428C129.021 15.428 129.021 15.444 129.021 15.476C129.021 15.476 129.005 15.492 128.973 15.524C128.973 15.588 128.957 15.62 128.925 15.62C128.765 15.844 128.605 16.084 128.445 16.34C128.285 16.596 128.125 16.852 127.965 17.108C127.741 17.396 127.485 17.652 127.197 17.876C126.941 18.068 126.653 18.26 126.333 18.452C126.301 18.484 126.269 18.5 126.237 18.5C126.205 18.5 126.173 18.516 126.141 18.548C126.013 18.644 125.901 18.756 125.805 18.884C125.613 19.268 125.517 19.652 125.517 20.036C125.517 20.356 125.437 20.708 125.277 21.092C125.277 21.188 125.245 21.268 125.181 21.332C124.957 21.748 124.605 21.924 124.125 21.86ZM125.421 43.124C125.101 42.932 124.893 42.676 124.797 42.356L124.653 41.636C124.621 41.38 124.589 41.124 124.557 40.868C124.557 40.612 124.541 40.372 124.509 40.148V39.86C124.413 39.348 124.349 38.852 124.317 38.372C124.285 37.892 124.221 37.412 124.125 36.932C124.125 36.836 124.125 36.74 124.125 36.644C124.125 36.548 124.109 36.452 124.077 36.356L123.933 35.876C123.869 35.62 123.693 35.348 123.405 35.06C122.957 34.676 122.637 34.212 122.445 33.668L122.157 32.756C122.125 32.596 122.093 32.452 122.061 32.324C122.061 32.164 122.061 32.004 122.061 31.844C122.061 31.588 122.093 31.332 122.157 31.076C122.221 30.788 122.285 30.516 122.349 30.26C122.381 30.164 122.429 30.068 122.493 29.972C122.557 29.876 122.621 29.78 122.685 29.684C122.909 29.364 123.149 29.092 123.405 28.868C123.533 28.804 123.645 28.724 123.741 28.628C123.837 28.532 123.949 28.452 124.077 28.388C124.237 28.26 124.397 28.164 124.557 28.1C124.717 28.036 124.893 27.988 125.085 27.956C125.437 27.924 125.805 27.956 126.189 28.052C126.541 28.116 126.861 28.244 127.149 28.436C127.437 28.596 127.725 28.788 128.013 29.012L128.397 29.444C128.461 29.572 128.541 29.7 128.637 29.828C128.733 29.924 128.813 30.036 128.877 30.164C129.421 30.996 129.469 31.844 129.021 32.708C128.925 32.964 128.781 33.188 128.589 33.38C128.461 33.572 128.317 33.764 128.157 33.956C128.029 34.116 127.901 34.276 127.773 34.436C127.677 34.564 127.581 34.676 127.485 34.772C127.389 34.868 127.309 34.98 127.245 35.108C126.893 35.492 126.717 35.972 126.717 36.548C126.685 36.772 126.669 36.996 126.669 37.22C126.669 37.444 126.669 37.684 126.669 37.94C126.669 38.26 126.669 38.58 126.669 38.9C126.669 39.22 126.685 39.54 126.717 39.86C126.717 40.052 126.717 40.244 126.717 40.436C126.717 40.628 126.733 40.804 126.765 40.964C126.797 41.092 126.797 41.22 126.765 41.348L126.621 42.308C126.621 42.34 126.589 42.42 126.525 42.548C126.461 42.772 126.333 42.932 126.141 43.028C126.013 43.092 125.917 43.124 125.853 43.124C125.757 43.188 125.613 43.188 125.421 43.124Z" fill="currentColor"/>
<path d="M115.437 40.34C115.309 40.372 115.213 40.34 115.149 40.244C115.021 40.148 114.893 40.052 114.765 39.956C114.669 39.86 114.541 39.764 114.381 39.668C114.125 39.54 113.917 39.316 113.757 38.996C113.469 38.548 113.325 38.068 113.325 37.556C113.325 37.396 113.309 37.236 113.277 37.076C113.277 36.916 113.261 36.756 113.229 36.596C113.229 36.436 113.213 36.292 113.181 36.164C113.181 36.004 113.181 35.86 113.181 35.732C113.181 35.572 113.181 35.412 113.181 35.252C113.181 35.06 113.165 34.884 113.133 34.724C113.133 34.692 113.117 34.676 113.085 34.676C113.085 34.644 113.085 34.628 113.085 34.628C113.021 34.628 112.973 34.644 112.941 34.676L112.365 35.396C112.237 35.588 112.077 35.764 111.885 35.924C111.725 36.052 111.565 36.196 111.405 36.356C110.893 36.74 110.381 37.06 109.869 37.316C109.645 37.412 109.437 37.492 109.245 37.556C108.157 37.94 107.085 38.116 106.029 38.084C105.677 38.052 105.309 38.02 104.925 37.988C104.573 37.988 104.205 37.94 103.821 37.844C103.533 37.748 103.245 37.652 102.957 37.556C102.701 37.428 102.445 37.268 102.189 37.076C101.965 36.884 101.741 36.692 101.517 36.5C101.293 36.276 101.085 36.036 100.893 35.78C100.573 35.268 100.365 34.948 100.269 34.82C100.173 34.692 100.029 34.372 99.8374 33.86L99.5974 33.428C99.5014 33.172 99.3894 32.932 99.2614 32.708C99.1654 32.452 99.0854 32.196 99.0214 31.94L98.7814 31.268C98.7174 31.044 98.6534 30.836 98.5894 30.644C98.5254 30.42 98.4614 30.196 98.3974 29.972C98.2694 29.556 98.1574 29.14 98.0614 28.724C97.9654 28.276 97.8694 27.844 97.7734 27.428L97.6294 26.564C97.6294 26.5 97.6134 26.436 97.5814 26.372C97.5814 26.276 97.5814 26.18 97.5814 26.084L97.2934 24.692C97.2614 24.532 97.2454 24.388 97.2454 24.26C97.2454 24.1 97.2454 23.956 97.2454 23.828C97.2134 23.572 97.1974 23.316 97.1974 23.06C97.2294 22.804 97.2454 22.548 97.2454 22.292C97.2774 21.94 97.3254 21.604 97.3894 21.284C97.4534 20.932 97.5174 20.596 97.5814 20.276C97.7094 19.828 97.8374 19.38 97.9654 18.932C98.1254 18.452 98.3014 18.004 98.4934 17.588C98.6534 17.236 98.8134 16.9 98.9734 16.58C99.1334 16.228 99.3254 15.892 99.5494 15.572C99.8374 15.092 100.141 14.628 100.461 14.18C100.813 13.732 101.165 13.3 101.517 12.884C101.773 12.596 102.029 12.324 102.285 12.068C102.541 11.78 102.797 11.492 103.053 11.204C103.501 10.756 103.981 10.372 104.493 10.052C104.749 9.89198 105.005 9.79598 105.261 9.76398C105.357 9.73198 105.437 9.71598 105.501 9.71598C105.597 9.71598 105.677 9.69998 105.741 9.66798C106.093 9.60398 106.413 9.61998 106.701 9.71598C106.797 9.74798 106.893 9.77998 106.989 9.81198C107.117 9.84398 107.229 9.87598 107.325 9.90798C107.741 10.068 108.109 10.164 108.429 10.196C108.621 10.196 108.845 10.26 109.101 10.388C109.261 10.42 109.421 10.468 109.581 10.532C109.741 10.564 109.901 10.596 110.061 10.628C110.253 10.628 110.413 10.676 110.541 10.772C110.573 10.772 110.605 10.788 110.637 10.82C110.701 10.82 110.749 10.82 110.781 10.82C111.037 10.852 111.261 10.916 111.453 11.012C111.645 11.076 111.837 11.172 112.029 11.3C112.477 11.588 112.941 11.908 113.421 12.26C113.709 12.484 113.853 12.788 113.853 13.172V13.412C113.949 13.796 113.853 14.18 113.565 14.564C113.405 14.852 113.277 15.044 113.181 15.14C113.117 15.204 112.925 15.316 112.605 15.476C112.509 15.508 112.397 15.556 112.269 15.62C112.173 15.652 112.045 15.668 111.885 15.668C111.821 15.668 111.741 15.684 111.645 15.716C111.581 15.716 111.517 15.716 111.453 15.716C111.357 15.748 111.261 15.748 111.165 15.716C111.069 15.684 110.973 15.668 110.877 15.668C110.845 15.7 110.797 15.684 110.733 15.62L110.013 15.044C109.501 14.596 108.909 14.34 108.237 14.276C108.109 14.244 107.981 14.228 107.853 14.228C107.725 14.228 107.581 14.212 107.421 14.18C107.005 14.18 106.669 14.292 106.413 14.516L106.077 14.852C105.789 15.172 105.485 15.492 105.165 15.812C104.877 16.132 104.589 16.452 104.301 16.772C104.077 16.996 103.885 17.252 103.725 17.54C103.565 17.828 103.405 18.116 103.245 18.404C102.733 19.396 102.349 20.452 102.093 21.572C102.061 21.764 102.029 21.956 101.997 22.148C101.965 22.308 101.933 22.468 101.901 22.628C101.901 22.788 101.901 22.948 101.901 23.108C101.901 23.268 101.917 23.428 101.949 23.588C101.981 23.716 101.997 23.844 101.997 23.972C101.997 24.068 102.013 24.18 102.045 24.308L102.189 25.46C102.221 25.652 102.253 25.86 102.285 26.084C102.349 26.276 102.397 26.468 102.429 26.66C102.749 27.908 103.133 29.172 103.581 30.452C103.741 30.932 103.933 31.348 104.157 31.7L104.445 32.132C104.541 32.26 104.637 32.388 104.733 32.516C104.829 32.612 104.925 32.708 105.021 32.804C105.213 32.932 105.373 33.012 105.501 33.044C105.981 33.14 106.477 33.188 106.989 33.188C107.629 33.124 108.173 32.916 108.621 32.564C108.845 32.404 109.037 32.228 109.197 32.036C109.389 31.844 109.565 31.636 109.725 31.412C110.109 30.964 110.445 30.484 110.733 29.972C110.829 29.78 110.813 29.588 110.685 29.396C110.493 29.076 110.253 28.82 109.965 28.628C109.613 28.372 109.245 28.164 108.861 28.004C108.509 27.812 108.109 27.7 107.661 27.668L107.421 27.572C107.165 27.476 106.893 27.476 106.605 27.572C106.381 27.668 106.141 27.716 105.885 27.716C105.661 27.684 105.421 27.652 105.165 27.62C104.589 27.46 104.093 27.204 103.677 26.852C103.549 26.692 103.437 26.532 103.341 26.372C103.277 26.212 103.197 26.068 103.101 25.94C103.101 25.876 103.085 25.812 103.053 25.748C103.053 25.684 103.069 25.636 103.101 25.604C103.101 25.444 103.101 25.284 103.101 25.124C103.133 24.964 103.165 24.804 103.197 24.644C103.197 24.612 103.229 24.5 103.293 24.308C103.357 24.148 103.437 24.004 103.533 23.876C103.661 23.716 103.789 23.572 103.917 23.444C104.429 22.964 104.989 22.66 105.597 22.532C105.949 22.436 106.301 22.372 106.653 22.34C107.005 22.276 107.341 22.228 107.661 22.196H111.693C111.949 22.196 112.221 22.196 112.509 22.196C112.797 22.196 113.085 22.18 113.373 22.148C113.629 22.116 113.869 22.1 114.093 22.1C114.349 22.1 114.605 22.1 114.861 22.1C115.149 22.1 115.405 22.148 115.629 22.244C115.981 22.34 116.253 22.548 116.445 22.868C116.541 22.996 116.637 23.14 116.733 23.3C116.829 23.46 116.893 23.62 116.925 23.78C116.957 23.812 116.973 23.86 116.973 23.924C116.973 23.956 116.989 24.004 117.021 24.068L117.357 25.844C117.421 26.1 117.469 26.372 117.501 26.66C117.533 26.948 117.565 27.236 117.597 27.524C117.597 27.684 117.597 27.86 117.597 28.052C117.629 28.212 117.645 28.372 117.645 28.532C117.645 28.66 117.645 28.804 117.645 28.964C117.677 29.124 117.693 29.284 117.693 29.444V31.652C117.693 31.876 117.693 32.132 117.693 32.42C117.725 32.676 117.757 32.932 117.789 33.188C117.821 33.316 117.837 33.444 117.837 33.572C117.837 33.7 117.837 33.844 117.837 34.004C117.805 34.324 117.821 34.66 117.885 35.012C117.949 35.332 117.997 35.668 118.029 36.02C118.061 36.18 118.093 36.356 118.125 36.548C118.189 36.708 118.237 36.884 118.269 37.076C118.301 37.204 118.317 37.348 118.317 37.508C118.349 37.636 118.365 37.78 118.365 37.94C118.365 38.068 118.349 38.196 118.317 38.324C118.317 38.484 118.269 38.628 118.173 38.756C118.109 38.82 118.045 38.916 117.981 39.044C117.853 39.396 117.581 39.684 117.165 39.908C116.845 40.036 116.509 40.132 116.157 40.196C115.869 40.196 115.629 40.244 115.437 40.34Z" fill="currentColor"/>
<path d="M75.2516 40.628C75.0276 40.756 74.8036 40.788 74.5796 40.724C74.3556 40.692 74.1636 40.612 74.0036 40.484C73.9076 40.388 73.8116 40.292 73.7156 40.196C73.6196 40.1 73.5396 40.004 73.4756 39.908C73.3796 39.812 73.2836 39.716 73.1876 39.62C73.0916 39.524 73.0116 39.428 72.9476 39.332C72.8196 39.204 72.7076 39.06 72.6116 38.9C72.5476 38.772 72.4836 38.644 72.4196 38.516C72.2276 37.972 72.1316 37.46 72.1316 36.98V36.308C72.1316 36.148 72.1316 36.004 72.1316 35.876C72.1636 35.748 72.1956 35.62 72.2276 35.492C72.3236 34.948 72.5316 34.5 72.8516 34.148C73.1716 33.764 73.5396 33.444 73.9556 33.188C74.1796 33.06 74.4036 32.948 74.6276 32.852C74.8516 32.756 75.0916 32.692 75.3476 32.66C75.6676 32.596 75.9396 32.532 76.1636 32.468C76.4196 32.404 76.5956 32.34 76.6916 32.276C76.9796 32.052 77.2836 31.924 77.6036 31.892C77.9556 31.86 78.2916 31.812 78.6116 31.748C78.7396 31.748 78.8356 31.764 78.8996 31.796C79.0916 31.796 79.2196 31.812 79.2836 31.844C79.5396 31.972 79.7636 32.02 79.9556 31.988C80.1796 31.924 80.4036 31.828 80.6276 31.7C81.1716 31.412 81.7316 31.156 82.3076 30.932C83.0116 30.612 83.6036 30.228 84.0836 29.78C84.1796 29.716 84.2756 29.652 84.3716 29.588C84.4676 29.492 84.5316 29.396 84.5636 29.3C84.7556 29.044 84.9476 28.788 85.1396 28.532C85.3316 28.244 85.5076 27.972 85.6676 27.716C85.8276 27.492 85.9556 27.268 86.0516 27.044C86.1476 26.788 86.2436 26.532 86.3396 26.276C86.6596 25.508 86.8836 24.756 87.0116 24.02C87.1076 23.572 87.1556 23.124 87.1556 22.676C87.1876 22.196 87.1716 21.732 87.1076 21.284C87.0756 20.932 87.0276 20.596 86.9636 20.276C86.9316 19.956 86.8996 19.636 86.8676 19.316C86.6756 17.268 86.0676 15.284 85.0436 13.364C84.6596 12.692 84.1956 12.084 83.6516 11.54C82.5956 10.388 81.4116 9.34797 80.0996 8.41997C79.6516 8.09997 79.1396 7.81197 78.5636 7.55597C78.3716 7.42797 78.1636 7.33197 77.9396 7.26797C77.7476 7.17197 77.5556 7.07597 77.3636 6.97997C76.7876 6.75597 76.3236 6.45197 75.9716 6.06797C75.6836 5.77997 75.4916 5.44397 75.3956 5.05997C75.3636 4.86797 75.3316 4.67597 75.2996 4.48397C75.2676 4.29197 75.2196 4.09997 75.1556 3.90797C75.1236 3.74797 75.1076 3.60397 75.1076 3.47597C75.1396 3.34797 75.1716 3.21997 75.2036 3.09197C75.2356 3.02797 75.2516 2.97997 75.2516 2.94797C75.2516 2.88397 75.2676 2.83597 75.2996 2.80397C75.3636 2.54797 75.4596 2.29197 75.5876 2.03597C75.7156 1.77997 75.8916 1.57197 76.1156 1.41197C76.6916 0.931969 77.2836 0.675969 77.8916 0.643969C78.3396 0.547969 78.8356 0.611969 79.3796 0.83597C79.4756 0.899969 79.6196 0.963969 79.8116 1.02797C79.9716 1.09197 80.1316 1.15597 80.2916 1.21997C80.4516 1.28397 80.5956 1.37997 80.7236 1.50797C80.7876 1.53997 80.8356 1.57197 80.8676 1.60397C80.9316 1.63597 80.9956 1.68397 81.0596 1.74797C81.5716 1.97197 82.0516 2.25997 82.4996 2.61197C82.9796 2.93197 83.4436 3.26797 83.8916 3.61997C84.2756 3.93997 84.6436 4.25997 84.9956 4.57997C85.3796 4.89997 85.7316 5.23597 86.0516 5.58797L87.0596 6.69197C87.5396 7.20397 87.9876 7.73197 88.4036 8.27597C88.8516 8.78797 89.2516 9.33197 89.6036 9.90797C89.8916 10.324 90.1476 10.772 90.3716 11.252C90.5956 11.732 90.8036 12.196 90.9956 12.644C91.2516 13.252 91.4756 13.892 91.6676 14.564C91.8916 15.204 92.0676 15.86 92.1956 16.532C92.2596 16.724 92.2916 16.916 92.2916 17.108C92.3236 17.3 92.3556 17.492 92.3876 17.684C92.4516 18.132 92.4996 18.58 92.5316 19.028C92.5956 19.476 92.6276 19.924 92.6276 20.372C92.6276 20.564 92.6276 20.756 92.6276 20.948C92.6596 21.14 92.6916 21.332 92.7236 21.524C92.7556 21.652 92.7716 21.812 92.7716 22.004C92.8036 22.516 92.7876 23.028 92.7236 23.54C92.6916 24.02 92.6436 24.516 92.5796 25.028C92.5476 25.156 92.5156 25.284 92.4836 25.412C92.4516 25.508 92.4196 25.636 92.3876 25.796C92.3236 25.988 92.2596 26.18 92.1956 26.372C92.1316 26.564 92.0676 26.772 92.0036 26.996C91.6836 27.86 91.3476 28.66 90.9956 29.396C90.8356 29.716 90.6756 30.036 90.5156 30.356C90.3556 30.676 90.1796 30.996 89.9876 31.316C89.9556 31.348 89.9396 31.396 89.9396 31.46C89.9396 31.492 89.9236 31.54 89.8916 31.604C89.7316 31.828 89.4596 32.212 89.0756 32.756C88.7236 33.268 88.3236 33.716 87.8756 34.1L87.8276 34.148L87.0596 34.772C86.8676 34.932 86.6596 35.076 86.4356 35.204C86.2116 35.332 85.9716 35.46 85.7156 35.588C84.9156 36.004 84.0996 36.436 83.2676 36.884C82.4676 37.3 81.6516 37.684 80.8196 38.036L80.4356 38.18C79.7636 38.436 79.1556 38.724 78.6116 39.044C78.2916 39.268 77.9396 39.444 77.5556 39.572C77.2036 39.7 76.8516 39.844 76.4996 40.004C76.3396 40.068 76.1796 40.132 76.0196 40.196C75.8596 40.26 75.6996 40.356 75.5396 40.484L75.2516 40.628Z" fill="currentColor" fill-opacity="0.4"/>
<path d="M64.17 40.724H63.93C63.834 40.724 63.722 40.708 63.594 40.676C63.498 40.676 63.386 40.676 63.258 40.676C63.034 40.708 62.842 40.66 62.682 40.532C62.554 40.436 62.41 40.308 62.25 40.148C62.186 40.084 62.106 40.004 62.01 39.908C61.946 39.844 61.866 39.796 61.77 39.764C61.706 39.732 61.642 39.652 61.578 39.524C61.546 39.46 61.498 39.38 61.434 39.284C61.402 39.188 61.354 39.092 61.29 38.996C61.226 38.836 61.21 38.66 61.242 38.468C61.274 38.372 61.29 38.276 61.29 38.18C61.322 38.116 61.338 38.036 61.338 37.94C61.338 37.62 61.338 37.316 61.338 37.028C61.338 36.708 61.306 36.388 61.242 36.068C61.21 35.972 61.194 35.876 61.194 35.78C61.194 35.652 61.178 35.524 61.146 35.396C61.146 35.172 61.13 34.996 61.098 34.868C61.098 34.708 61.082 34.564 61.05 34.436C61.05 34.308 61.05 34.18 61.05 34.052C61.018 33.828 61.002 33.62 61.002 33.428C61.002 33.236 60.97 33.028 60.906 32.804V32.66C60.906 32.244 60.874 31.844 60.81 31.46C60.778 31.044 60.762 30.628 60.762 30.212C60.762 30.02 60.746 29.876 60.714 29.78C60.682 29.492 60.65 29.204 60.618 28.916C60.618 28.596 60.618 28.276 60.618 27.956C60.618 27.668 60.618 27.38 60.618 27.092C60.618 26.772 60.586 26.468 60.522 26.18C60.49 26.116 60.474 26.036 60.474 25.94C60.474 25.844 60.474 25.764 60.474 25.7C60.474 24.388 60.474 23.076 60.474 21.764C60.474 20.452 60.49 19.156 60.522 17.876C60.522 17.716 60.522 17.556 60.522 17.396C60.554 17.236 60.57 17.076 60.57 16.916C60.57 16.82 60.57 16.724 60.57 16.628C60.602 16.532 60.618 16.452 60.618 16.388C60.618 16.036 60.618 15.684 60.618 15.332C60.65 14.948 60.682 14.58 60.714 14.228C60.778 14.132 60.778 14.004 60.714 13.844C60.682 13.812 60.634 13.796 60.57 13.796L60.426 13.94C60.362 14.036 60.282 14.132 60.186 14.228C60.09 14.324 60.01 14.42 59.946 14.516C59.818 14.708 59.674 14.916 59.514 15.14C59.386 15.332 59.242 15.54 59.082 15.764C58.858 16.148 58.618 16.548 58.362 16.964C58.106 17.348 57.914 17.764 57.786 18.212C57.754 18.276 57.722 18.356 57.69 18.452C57.658 18.516 57.626 18.58 57.594 18.644C57.466 18.964 57.322 19.284 57.162 19.604C57.034 19.892 56.906 20.212 56.778 20.564C56.586 20.98 56.314 21.364 55.962 21.716C55.898 21.78 55.834 21.812 55.77 21.812C55.61 21.908 55.434 22.004 55.242 22.1C55.05 22.164 54.842 22.18 54.618 22.148H54.33C54.042 22.212 53.802 22.148 53.61 21.956C53.386 21.892 53.194 21.78 53.034 21.62C52.906 21.46 52.762 21.284 52.602 21.092C52.474 20.932 52.362 20.74 52.266 20.516C52.202 20.292 52.17 20.068 52.17 19.844C52.138 19.78 52.122 19.7 52.122 19.604C52.122 19.508 52.122 19.428 52.122 19.364C52.09 19.3 52.058 19.236 52.026 19.172C51.994 19.076 51.978 19.012 51.978 18.98C51.978 18.916 51.946 18.82 51.882 18.692C51.818 18.564 51.69 18.308 51.498 17.924C51.306 17.54 51.21 17.364 51.21 17.396C51.114 17.236 51.018 17.06 50.922 16.868C50.826 16.676 50.714 16.5 50.586 16.34L50.298 15.812C50.234 15.812 50.186 15.796 50.154 15.764L50.106 15.812C50.106 15.908 50.106 16.004 50.106 16.1C50.106 16.196 50.122 16.292 50.154 16.388C50.218 16.74 50.25 17.092 50.25 17.444C50.25 17.796 50.218 18.148 50.154 18.5C50.154 18.692 50.17 18.852 50.202 18.98C50.234 19.044 50.25 19.156 50.25 19.316C50.25 19.508 50.25 19.7 50.25 19.892C50.282 20.084 50.282 20.276 50.25 20.468C50.218 20.628 50.202 20.804 50.202 20.996C50.234 21.156 50.266 21.316 50.298 21.476V21.956C50.234 22.148 50.234 22.356 50.298 22.58C50.33 22.74 50.33 22.916 50.298 23.108C50.298 23.268 50.314 23.428 50.346 23.588C50.346 23.748 50.314 23.956 50.25 24.212C50.058 24.98 50.106 25.716 50.394 26.42C50.426 26.548 50.458 26.676 50.49 26.804C50.522 26.9 50.522 27.012 50.49 27.14C50.49 27.236 50.49 27.332 50.49 27.428C50.49 27.524 50.506 27.62 50.538 27.716C50.602 27.844 50.634 27.972 50.634 28.1C50.666 28.452 50.682 28.724 50.682 28.916C50.714 29.108 50.746 29.252 50.778 29.348C50.842 29.7 50.906 30.068 50.97 30.452C51.034 30.804 51.098 31.156 51.162 31.508C51.226 31.924 51.29 32.34 51.354 32.756C51.45 33.14 51.498 33.54 51.498 33.956C51.498 34.084 51.514 34.18 51.546 34.244C51.61 34.5 51.642 34.772 51.642 35.06C51.642 35.316 51.658 35.572 51.69 35.828C51.69 36.18 51.61 36.452 51.45 36.644C51.386 36.772 51.354 36.852 51.354 36.884C51.066 37.492 50.554 37.844 49.818 37.94C49.722 37.972 49.626 37.988 49.53 37.988C49.434 37.988 49.338 37.988 49.242 37.988C48.89 38.052 48.634 37.988 48.474 37.796C48.41 37.732 48.346 37.7 48.282 37.7C48.122 37.732 47.962 37.636 47.802 37.412C47.706 37.252 47.562 37.108 47.37 36.98C47.274 36.884 47.194 36.724 47.13 36.5C47.098 36.436 47.066 36.372 47.034 36.308C47.034 36.244 47.034 36.18 47.034 36.116C47.002 35.668 46.954 35.236 46.89 34.82C46.826 34.372 46.778 33.94 46.746 33.524L46.698 33.044C46.666 32.916 46.65 32.804 46.65 32.708C46.65 32.612 46.634 32.5 46.602 32.372V32.084C46.506 31.636 46.458 31.188 46.458 30.74C46.458 30.26 46.474 29.796 46.506 29.348C46.538 29.06 46.554 28.772 46.554 28.484C46.554 28.164 46.57 27.86 46.602 27.572V26.468C46.602 26.308 46.602 26.148 46.602 25.988C46.602 25.796 46.586 25.62 46.554 25.46C46.522 25.268 46.506 25.076 46.506 24.884C46.506 24.692 46.506 24.5 46.506 24.308V22.1C46.474 21.844 46.458 21.588 46.458 21.332C46.458 21.044 46.458 20.772 46.458 20.516C46.458 20.42 46.458 20.324 46.458 20.228C46.458 20.1 46.442 19.988 46.41 19.892C46.41 19.732 46.394 19.588 46.362 19.46C46.362 19.3 46.346 19.156 46.314 19.028V18.692C46.25 18.404 46.218 18.132 46.218 17.876C46.218 17.588 46.218 17.3 46.218 17.012C46.218 16.756 46.218 16.5 46.218 16.244C46.218 15.956 46.186 15.7 46.122 15.476C46.09 15.38 46.074 15.284 46.074 15.188C46.074 15.092 46.074 14.996 46.074 14.9C46.074 14.676 46.074 14.468 46.074 14.276C46.074 14.052 46.042 13.828 45.978 13.604C45.946 13.54 45.93 13.428 45.93 13.268V10.868C45.93 10.708 45.93 10.564 45.93 10.436C45.93 10.276 45.898 10.132 45.834 10.004C45.738 9.68397 45.754 9.31597 45.882 8.89997C45.946 8.73997 46.01 8.62797 46.074 8.56397C46.138 8.46797 46.202 8.37197 46.266 8.27596C46.33 8.17997 46.378 8.08397 46.41 7.98796C46.474 7.89196 46.522 7.84396 46.554 7.84396C46.682 7.81196 46.778 7.76396 46.842 7.69996C46.938 7.63596 47.018 7.57196 47.082 7.50797L47.37 7.36396C47.434 7.33196 47.53 7.31597 47.658 7.31597C47.818 7.34797 47.978 7.37996 48.138 7.41196C48.33 7.41196 48.506 7.42797 48.666 7.45997C48.858 7.45997 49.002 7.53996 49.098 7.69996C49.258 7.92396 49.418 8.14796 49.578 8.37197C49.738 8.59596 49.866 8.83596 49.962 9.09197C50.058 9.31596 50.186 9.50797 50.346 9.66797C50.538 9.92397 50.73 10.18 50.922 10.436C51.114 10.692 51.322 10.948 51.546 11.204C51.642 11.3 51.722 11.412 51.786 11.54C51.882 11.668 51.962 11.796 52.026 11.924C52.186 12.148 52.33 12.372 52.458 12.596C52.618 12.788 52.778 12.996 52.938 13.22L53.658 14.372C53.722 14.5 53.786 14.628 53.85 14.756C53.914 14.852 53.978 14.948 54.042 15.044C54.106 15.204 54.202 15.22 54.33 15.092C54.458 14.932 54.586 14.772 54.714 14.612C54.874 14.42 55.018 14.244 55.146 14.084C55.434 13.732 55.722 13.364 56.01 12.98C56.298 12.596 56.602 12.228 56.922 11.876L57.21 11.444C57.434 11.124 57.642 10.82 57.834 10.532C58.058 10.212 58.266 9.89196 58.458 9.57196C58.682 9.21997 58.874 8.86796 59.034 8.51596C59.226 8.16396 59.386 7.81197 59.514 7.45997L60.09 6.16397C60.282 5.77996 60.554 5.45996 60.906 5.20396C61.386 4.81996 61.914 4.67596 62.49 4.77196C62.714 4.80396 62.922 4.86797 63.114 4.96396C63.306 5.02796 63.498 5.09197 63.69 5.15596C63.882 5.21997 64.01 5.36397 64.074 5.58796C64.138 5.68397 64.186 5.77996 64.218 5.87596C64.25 5.97196 64.266 6.06796 64.266 6.16397C64.298 6.38796 64.346 6.59596 64.41 6.78797C64.474 6.94797 64.522 7.13997 64.554 7.36396L64.602 7.84396C64.666 8.13196 64.73 8.41996 64.794 8.70796C64.89 8.99596 64.97 9.28396 65.034 9.57196V9.66797C65.066 9.98797 65.098 10.308 65.13 10.628C65.194 10.916 65.21 11.22 65.178 11.54V12.644C65.178 12.804 65.178 12.964 65.178 13.124C65.178 13.284 65.162 13.444 65.13 13.604C65.098 13.828 65.082 14.052 65.082 14.276C65.082 14.468 65.082 14.676 65.082 14.9C65.05 15.028 65.034 15.156 65.034 15.284C65.034 15.412 65.018 15.54 64.986 15.668C64.954 15.796 64.938 15.924 64.938 16.052C64.938 16.148 64.938 16.276 64.938 16.436V17.78C64.938 18.004 64.922 18.212 64.89 18.404C64.89 18.596 64.874 18.804 64.842 19.028C64.81 19.156 64.794 19.284 64.794 19.412C64.794 19.508 64.794 19.62 64.794 19.748V22.676C64.794 22.9 64.794 23.124 64.794 23.348C64.826 23.572 64.858 23.796 64.89 24.02C64.922 24.18 64.938 24.356 64.938 24.548C64.938 24.708 64.938 24.868 64.938 25.028C64.97 25.252 64.986 25.476 64.986 25.7C64.986 25.892 65.002 26.116 65.034 26.372V26.9C65.066 27.156 65.082 27.428 65.082 27.716C65.082 27.972 65.082 28.228 65.082 28.484V29.108C65.146 29.332 65.178 29.572 65.178 29.828C65.178 30.084 65.194 30.34 65.226 30.596V30.932C65.29 31.124 65.322 31.316 65.322 31.508C65.322 31.7 65.338 31.892 65.37 32.084L65.514 33.812C65.546 33.94 65.562 34.068 65.562 34.196C65.594 34.292 65.61 34.404 65.61 34.532C65.642 34.66 65.658 34.788 65.658 34.916C65.658 35.012 65.674 35.124 65.706 35.252C65.706 35.284 65.706 35.332 65.706 35.396C65.738 35.46 65.754 35.524 65.754 35.588C65.754 35.812 65.77 36.052 65.802 36.308C65.866 36.564 65.914 36.82 65.946 37.076L66.138 38.42C66.138 38.612 66.122 38.74 66.09 38.804C66.058 38.996 65.978 39.172 65.85 39.332C65.754 39.524 65.674 39.7 65.61 39.86C65.61 39.892 65.594 39.908 65.562 39.908C65.338 40.1 65.114 40.26 64.89 40.388C64.666 40.548 64.426 40.66 64.17 40.724Z" fill="currentColor" fill-opacity="0.4"/>
<path d="M37.3226 40.292C37.0666 40.228 36.7946 40.164 36.5066 40.1C36.2506 40.036 35.9946 39.988 35.7386 39.956C35.5146 39.892 35.3386 39.796 35.2106 39.668C35.0826 39.572 34.9546 39.476 34.8266 39.38C34.7306 39.284 34.6186 39.204 34.4906 39.14C34.3626 39.044 34.2186 38.932 34.0586 38.804C33.9306 38.708 33.7866 38.596 33.6266 38.468C33.4666 38.276 33.2266 38.068 32.9066 37.844C32.6506 37.684 32.4106 37.508 32.1866 37.316C31.9626 37.124 31.7226 36.932 31.4666 36.74C31.3386 36.612 31.2586 36.516 31.2266 36.452C30.9066 36.004 30.5866 35.652 30.2666 35.396C30.2026 35.332 30.1386 35.236 30.0746 35.108L29.8346 34.82C29.6426 34.628 29.4666 34.436 29.3066 34.244C29.1786 34.02 29.0346 33.796 28.8746 33.572C28.7146 33.348 28.5386 33.028 28.3466 32.612C28.1866 32.196 28.0746 31.956 28.0106 31.892L27.9626 31.7C27.8986 31.54 27.8026 31.46 27.6746 31.46C27.5466 31.46 27.4506 31.38 27.3866 31.22C27.3226 31.124 27.2586 31.028 27.1946 30.932C27.1306 30.836 27.0666 30.74 27.0026 30.644C26.8746 30.388 26.7946 30.116 26.7626 29.828C26.7626 29.54 26.7626 29.396 26.7626 29.396C26.7306 29.3 26.6826 29.14 26.6186 28.916C26.5866 28.692 26.5546 28.564 26.5226 28.532C26.4586 28.372 26.3786 28.276 26.2826 28.244C26.1866 28.212 26.1386 28.116 26.1386 27.956L25.8026 27.236C25.7066 26.852 25.5626 26.516 25.3706 26.228C24.9546 25.524 24.6666 24.74 24.5066 23.876C24.4426 23.524 24.3786 23.172 24.3146 22.82C24.2506 22.436 24.1866 22.052 24.1226 21.668C23.9626 20.708 23.9626 19.716 24.1226 18.692C24.1546 18.596 24.1706 18.468 24.1706 18.308C24.2026 17.796 24.2986 17.3 24.4586 16.82C24.9386 15.092 25.5146 13.428 26.1866 11.828C26.4106 11.316 26.6506 10.82 26.9066 10.34C27.1626 9.82797 27.4506 9.34797 27.7706 8.89997C28.4746 7.81197 29.4026 6.93197 30.5546 6.25997C30.8746 6.06797 31.1786 5.87597 31.4666 5.68397C31.7866 5.49197 32.1066 5.28397 32.4266 5.05997C32.7146 4.89997 33.0026 4.72397 33.2906 4.53197C33.5786 4.33997 33.8826 4.17997 34.2026 4.05197V4.00397C34.2666 3.87597 34.3466 3.76397 34.4426 3.66797C34.5386 3.53997 34.6666 3.45997 34.8266 3.42797C34.8586 3.42797 34.9226 3.37997 35.0186 3.28397C35.0506 3.28397 35.0666 3.26797 35.0666 3.23597C35.1306 3.23597 35.1946 3.26797 35.2586 3.33197C35.3226 3.39597 35.3706 3.42797 35.4026 3.42797C35.5306 3.36397 35.6426 3.29997 35.7386 3.23597C35.8666 3.17197 35.9946 3.12397 36.1226 3.09197C36.1866 3.05997 36.2506 3.02797 36.3146 2.99597C36.3786 2.96397 36.4426 2.96397 36.5066 2.99597C36.6346 2.99597 36.7466 2.97997 36.8426 2.94797C36.9386 2.88397 37.0506 2.83597 37.1786 2.80397C37.2746 2.73997 37.3706 2.69197 37.4666 2.65997C37.5626 2.62797 37.6586 2.59597 37.7546 2.56397C37.9466 2.49997 38.0906 2.48397 38.1866 2.51597H38.5226C38.6506 2.54797 38.7786 2.56397 38.9066 2.56397C39.0666 2.53197 39.1946 2.56397 39.2906 2.65997C39.4506 2.78797 39.6106 2.89997 39.7706 2.99597C39.9626 3.09197 40.1066 3.21997 40.2026 3.37997L40.2986 3.47597C40.4586 3.53997 40.5546 3.63597 40.5866 3.76397C40.6506 3.89197 40.6986 4.01997 40.7306 4.14797C40.8586 4.53197 40.8906 4.94797 40.8266 5.39597C40.8266 5.45997 40.8106 5.53997 40.7786 5.63597C40.7786 5.69997 40.7786 5.76397 40.7786 5.82797C40.7786 5.92397 40.7466 6.03597 40.6826 6.16397C40.6826 6.16397 40.6506 6.19597 40.5866 6.25997C40.3626 6.61197 40.1866 6.86797 40.0586 7.02797C39.9626 7.15597 39.8346 7.25197 39.6746 7.31597C39.5466 7.37997 39.2906 7.50797 38.9066 7.69997C38.5866 7.85997 38.2666 8.01997 37.9466 8.17997C37.6266 8.30797 37.2906 8.43597 36.9386 8.56397C36.1386 8.85197 35.4026 9.23597 34.7306 9.71597L33.5306 10.58C32.7626 11.092 32.2186 11.748 31.8986 12.548L31.5146 13.364C31.4826 13.428 31.4506 13.508 31.4186 13.604C31.3866 13.668 31.3706 13.732 31.3706 13.796C31.2746 14.116 31.1626 14.436 31.0346 14.756C30.9066 15.044 30.7946 15.348 30.6986 15.668C30.6026 15.988 30.5066 16.308 30.4106 16.628C30.3466 16.916 30.2826 17.236 30.2186 17.588C30.1866 17.716 30.1546 17.86 30.1226 18.02C30.1226 18.18 30.1066 18.34 30.0746 18.5C30.0746 18.692 30.0746 18.9 30.0746 19.124C30.0746 19.316 30.0586 19.508 30.0266 19.7C29.9306 20.276 29.9306 20.852 30.0266 21.428C30.0586 21.524 30.0746 21.62 30.0746 21.716C30.0746 21.812 30.0906 21.892 30.1226 21.956C30.2186 22.66 30.4266 23.316 30.7466 23.924C30.9066 24.148 31.0346 24.372 31.1306 24.596C31.2586 24.788 31.3866 24.996 31.5146 25.22L31.7546 25.652C31.8186 25.78 31.8666 25.908 31.8986 26.036C31.9626 26.132 32.0266 26.228 32.0906 26.324C32.1866 26.452 32.2666 26.596 32.3306 26.756C32.4266 26.884 32.4906 27.028 32.5226 27.188C32.5866 27.316 32.6506 27.412 32.7146 27.476C32.8746 27.668 33.0026 27.892 33.0986 28.148C33.1946 28.372 33.3386 28.58 33.5306 28.772C33.5626 28.804 33.6106 28.884 33.6746 29.012C33.7386 29.236 33.8346 29.444 33.9626 29.636C34.0906 29.796 34.2186 29.956 34.3466 30.116C34.6026 30.468 34.8586 30.82 35.1146 31.172C35.3706 31.492 35.6106 31.828 35.8346 32.18C36.0586 32.468 36.2826 32.74 36.5066 32.996C36.7626 33.252 37.0346 33.492 37.3226 33.716C37.5786 33.908 37.8186 34.1 38.0426 34.292C38.2986 34.452 38.5546 34.612 38.8106 34.772C39.0026 34.868 39.1946 35.028 39.3866 35.252C39.5146 35.444 39.6266 35.572 39.7226 35.636C39.8506 35.7 39.9466 35.796 40.0106 35.924C40.0746 36.052 40.1386 36.18 40.2026 36.308C40.2346 36.34 40.2506 36.372 40.2506 36.404C40.2826 36.628 40.3146 36.852 40.3466 37.076C40.4106 37.268 40.4106 37.476 40.3466 37.7C40.2506 37.988 40.1386 38.26 40.0106 38.516C39.8826 38.804 39.7066 39.06 39.4826 39.284C39.0026 39.764 38.4106 40.084 37.7066 40.244C37.6106 40.276 37.4826 40.292 37.3226 40.292Z" fill="currentColor" fill-opacity="0.4"/>
<path d="M11.0587 38.852C10.7387 38.82 10.4187 38.772 10.0987 38.708C9.81074 38.676 9.52274 38.596 9.23474 38.468L8.03474 38.036C7.61874 37.876 7.23474 37.7 6.88274 37.508C6.53074 37.284 6.17874 37.06 5.82674 36.836C5.66674 36.676 5.50674 36.532 5.34674 36.404C5.18674 36.244 5.02674 36.1 4.86674 35.972C4.61074 35.716 4.35474 35.46 4.09874 35.204C3.84274 34.916 3.60274 34.612 3.37874 34.292L2.22674 32.516C1.93874 32.068 1.68274 31.604 1.45874 31.124C1.23474 30.612 1.04274 30.1 0.882736 29.588C0.530736 28.628 0.354736 27.684 0.354736 26.756V25.988C0.354736 25.188 0.402736 24.404 0.498736 23.636C0.562736 22.996 0.706736 22.42 0.930737 21.908C1.05874 21.588 1.17074 21.268 1.26674 20.948C1.36274 20.628 1.47474 20.324 1.60274 20.036L1.74674 19.7C1.81074 19.284 1.95474 18.916 2.17874 18.596C2.40274 18.244 2.59474 17.908 2.75474 17.588C2.88274 17.332 3.02674 17.108 3.18674 16.916C3.34674 16.692 3.49074 16.468 3.61874 16.244C3.68274 16.148 3.76274 16.068 3.85874 16.004C3.95474 15.908 4.03474 15.812 4.09874 15.716C4.16274 15.652 4.21074 15.572 4.24274 15.476C4.30674 15.348 4.35474 15.236 4.38674 15.14C4.45074 15.044 4.56274 14.916 4.72274 14.756C4.91474 14.66 5.09074 14.436 5.25074 14.084C5.31474 13.956 5.37874 13.86 5.44274 13.796C5.63474 13.636 5.79474 13.444 5.92274 13.22C6.08274 12.996 6.25874 12.788 6.45074 12.596C6.57874 12.468 6.64274 12.292 6.64274 12.068C6.64274 11.908 6.64274 11.764 6.64274 11.636C6.67474 11.476 6.67474 11.332 6.64274 11.204C6.61074 11.044 6.65874 10.9 6.78674 10.772C6.85074 10.708 6.89874 10.628 6.93074 10.532C6.96274 10.436 6.99474 10.34 7.02674 10.244C7.12274 9.92395 7.37874 9.65195 7.79474 9.42795C7.85874 9.36395 7.93874 9.33195 8.03474 9.33195C8.16274 9.29995 8.27474 9.26795 8.37074 9.23595C8.59474 9.13995 8.85074 9.12395 9.13874 9.18795C9.26674 9.21995 9.37874 9.23595 9.47474 9.23595C9.57074 9.20395 9.66674 9.17195 9.76274 9.13995C9.89074 9.07595 10.0027 9.02795 10.0987 8.99595C10.2267 8.96395 10.3387 8.93195 10.4347 8.89995C10.8827 8.73995 11.3467 8.75595 11.8267 8.94795C12.3387 9.13995 12.7067 9.47595 12.9307 9.95595C12.9947 10.116 13.0587 10.276 13.1227 10.436C13.1867 10.596 13.2347 10.756 13.2667 10.916C13.3307 11.268 13.3147 11.572 13.2187 11.828C13.1547 11.956 13.1227 12.036 13.1227 12.068C13.0907 12.196 13.1227 12.308 13.2187 12.404C13.2827 12.5 13.3627 12.58 13.4587 12.644C13.8107 12.964 14.1467 13.284 14.4667 13.604C14.7867 13.892 15.0907 14.212 15.3787 14.564C15.6347 14.82 15.8427 15.092 16.0027 15.38C16.1947 15.636 16.3707 15.924 16.5307 16.244C16.5947 16.404 16.6747 16.58 16.7707 16.772C16.8667 16.932 16.9627 17.092 17.0587 17.252C17.2187 17.54 17.3467 17.844 17.4427 18.164C17.5707 18.484 17.6987 18.804 17.8267 19.124V19.172C17.8907 19.396 17.9387 19.636 17.9707 19.892C18.0347 20.116 18.1307 20.356 18.2587 20.612C18.3547 20.836 18.4347 21.076 18.4987 21.332C18.5627 21.556 18.6267 21.796 18.6907 22.052C18.7547 22.34 18.8187 22.628 18.8827 22.916C18.9787 23.204 19.0427 23.492 19.0747 23.78C19.1067 23.908 19.1387 24.036 19.1707 24.164C19.2027 24.26 19.2347 24.372 19.2667 24.5C19.3307 24.788 19.3947 25.076 19.4587 25.364C19.5227 25.652 19.5707 25.94 19.6027 26.228L19.7467 26.564C19.8107 26.756 19.8747 27.012 19.9387 27.332C20.0347 27.748 20.0827 28.164 20.0827 28.58C20.1147 28.996 20.1147 29.428 20.0827 29.876C20.0827 30.1 20.0667 30.276 20.0347 30.404C19.8427 31.076 19.6027 31.764 19.3147 32.468C19.1867 32.692 19.0587 32.916 18.9307 33.14C18.8027 33.332 18.6747 33.54 18.5467 33.764L18.1147 34.436C17.9547 34.724 17.7787 34.98 17.5867 35.204C17.2667 35.716 16.8827 36.164 16.4347 36.548C15.9867 36.932 15.5067 37.3 14.9947 37.652C13.8747 38.516 12.5627 38.916 11.0587 38.852ZM10.8667 34.1C11.5387 34.1 12.1147 33.908 12.5947 33.524C12.7547 33.364 12.9147 33.22 13.0747 33.092C13.2667 32.932 13.4267 32.772 13.5547 32.612C14.1627 31.94 14.6427 31.236 14.9947 30.5L15.1387 30.02C15.2027 29.444 15.2027 28.868 15.1387 28.292L14.8507 26.708C14.7547 26.292 14.6747 25.892 14.6107 25.508C14.5467 25.092 14.4507 24.692 14.3227 24.308C14.2267 24.084 14.1947 23.908 14.2267 23.78C14.2587 23.62 14.2587 23.46 14.2267 23.3C14.1947 23.14 14.1467 22.98 14.0827 22.82C13.9867 22.404 13.8747 21.988 13.7467 21.572C13.6187 21.156 13.4907 20.74 13.3627 20.324C13.3307 20.228 13.2987 20.132 13.2667 20.036C13.2347 19.94 13.2027 19.844 13.1707 19.748C12.9467 19.3 12.7067 18.868 12.4507 18.452C12.1947 18.036 11.9067 17.652 11.5867 17.3C11.4267 17.108 11.2507 16.932 11.0587 16.772C10.8667 16.58 10.6747 16.404 10.4827 16.244C10.4507 16.18 10.4027 16.148 10.3387 16.148C10.3067 16.116 10.2587 16.084 10.1947 16.052C10.0987 15.924 9.97074 15.94 9.81074 16.1C9.65074 16.26 9.47474 16.436 9.28274 16.628C9.12274 16.82 8.96274 17.012 8.80274 17.204C8.64274 17.428 8.46674 17.652 8.27474 17.876C8.11474 18.1 7.95474 18.324 7.79474 18.548C7.57074 18.836 7.36274 19.124 7.17074 19.412C6.97874 19.7 6.78674 19.988 6.59474 20.276C5.92274 21.364 5.39474 22.564 5.01074 23.876C4.94674 24.068 4.91474 24.212 4.91474 24.308C4.88274 24.532 4.85074 24.756 4.81874 24.98C4.81874 25.204 4.81874 25.444 4.81874 25.7V26.084C4.85074 26.18 4.86674 26.276 4.86674 26.372C4.86674 26.468 4.88274 26.564 4.91474 26.66C4.91474 27.044 5.01074 27.46 5.20274 27.908C5.45874 28.548 5.74674 29.172 6.06674 29.78C6.38674 30.388 6.75474 30.964 7.17074 31.508C7.26674 31.636 7.36274 31.764 7.45874 31.892C7.58674 32.02 7.69874 32.148 7.79474 32.276C8.08274 32.596 8.38674 32.884 8.70674 33.14C9.05874 33.396 9.41074 33.62 9.76274 33.812C10.1467 34.004 10.5147 34.1 10.8667 34.1Z" fill="currentColor"/>
</svg>
