<svg width="202" height="30" viewBox="0 0 202 30" fill="none" xmlns="http://www.w3.org/2000/svg">
<path d="M191.78 4.90909H196.689V9.81818H191.78V4.90909ZM196.689 9.81818H201.598V14.7273H196.689V9.81818ZM186.871 9.81818H191.78V14.7273H186.871V9.81818ZM196.689 14.7273H201.598V19.6364H196.689V14.7273ZM191.78 14.7273H196.689V19.6364H191.78V14.7273ZM186.871 14.7273H191.78V19.6364H186.871V14.7273ZM186.871 19.6364H191.78V24.5455H186.871V19.6364ZM191.78 24.5455H196.689V29.4545H191.78V24.5455Z" fill="currentColor" fill-opacity="0.6"/>
<path d="M177.072 4.90909H181.981V9.81818H177.072V4.90909ZM177.072 9.81818H181.981V14.7273H177.072V9.81818ZM177.072 14.7273H181.981V19.6364H177.072V14.7273ZM177.072 19.6364H181.981V24.5455H177.072V19.6364ZM177.072 24.5455H181.981V29.4545H177.072V24.5455ZM172.163 24.5455H177.072V29.4545H172.163V24.5455ZM167.254 24.5455H172.163V29.4545H167.254V24.5455ZM172.163 4.90909H177.072V9.81818H172.163V4.90909ZM167.254 9.81818H172.163V14.7273H167.254V9.81818ZM167.254 14.7273H172.163V19.6364H167.254V14.7273Z" fill="currentColor" fill-opacity="0.6"/>
<path d="M157.455 4.90909H162.364V9.81818H157.455V4.90909ZM157.455 9.81818H162.364V14.7273H157.455V9.81818ZM157.455 14.7273H162.364V19.6364H157.455V14.7273ZM157.455 19.6364H162.364V24.5455H157.455V19.6364ZM152.545 4.90909H157.455V9.81818H152.545V4.90909ZM152.545 19.6364H157.455V24.5455H152.545V19.6364ZM147.636 9.81818H152.545V14.7273H147.636V9.81818ZM147.636 14.7273H152.545V19.6364H147.636V14.7273Z" fill="currentColor" fill-opacity="0.6"/>
<path d="M118.158 19.6364H123.067V24.5455H118.158V19.6364ZM118.158 14.7273H123.067V19.6364H118.158V14.7273ZM118.158 9.81818H123.067V14.7273H118.158V9.81818ZM118.158 4.90909H123.067V9.81818H118.158V4.90909ZM123.067 4.90909H127.976V9.81818H123.067V4.90909ZM127.976 9.81818H132.885V14.7273H127.976V9.81818ZM127.976 14.7273H132.885V19.6364H127.976V14.7273ZM127.976 19.6364H132.885V24.5455H127.976V19.6364ZM132.885 4.90909H137.794V9.81818H132.885V4.90909ZM137.794 9.81818H142.703V14.7273H137.794V9.81818ZM137.794 14.7273H142.703V19.6364H137.794V14.7273ZM137.794 19.6364H142.703V24.5455H137.794V19.6364Z" fill="currentColor" fill-opacity="0.6"/>
<path d="M108.349 19.6364H113.258V24.5455H108.349V19.6364ZM108.349 14.7273H113.258V19.6364H108.349V14.7273ZM108.349 9.81818H113.258V14.7273H108.349V9.81818ZM108.349 0H113.258V4.90909H108.349V0Z" fill="currentColor" fill-opacity="0.6"/>
<path d="M98.5406 19.6364H103.45V24.5455H98.5406V19.6364ZM98.5406 4.90909H103.45V9.81818H98.5406V4.90909Z" fill="currentColor" fill-opacity="0.6"/>
<path d="M88.7416 4.90909H93.6507V9.81818H88.7416V4.90909ZM88.7416 9.81818H93.6507V14.7273H88.7416V9.81818ZM88.7416 14.7273H93.6507V19.6364H88.7416V14.7273ZM88.7416 19.6364H93.6507V24.5455H88.7416V19.6364ZM88.7416 24.5455H93.6507V29.4545H88.7416V24.5455ZM83.8326 24.5455H88.7416V29.4545H83.8326V24.5455ZM78.9235 24.5455H83.8326V29.4545H78.9235V24.5455ZM83.8326 4.90909H88.7416V9.81818H83.8326V4.90909ZM78.9235 9.81818H83.8326V14.7273H78.9235V9.81818ZM78.9235 14.7273H83.8326V19.6364H78.9235V14.7273Z" fill="currentColor" fill-opacity="0.6"/>
<path d="M64.2106 0H69.1197V4.90909H64.2106V0ZM69.1197 4.90909H74.0288V9.81818H69.1197V4.90909ZM69.1197 19.6364H74.0288V24.5455H69.1197V19.6364ZM64.2106 24.5455H69.1197V29.4545H64.2106V24.5455ZM69.1197 9.81818H74.0288V14.7273H69.1197V9.81818ZM69.1197 14.7273H74.0288V19.6364H69.1197V14.7273Z" fill="currentColor" fill-opacity="0.2"/>
<path d="M34.7321 19.6364H39.6411V24.5455H34.7321V19.6364ZM34.7321 14.7273H39.6411V19.6364H34.7321V14.7273ZM34.7321 9.81818H39.6411V14.7273H34.7321V9.81818ZM34.7321 4.90909H39.6411V9.81818H34.7321V4.90909ZM39.6411 4.90909H44.5502V9.81818H39.6411V4.90909ZM44.5502 9.81818H49.4593V14.7273H44.5502V9.81818ZM44.5502 14.7273H49.4593V19.6364H44.5502V14.7273ZM44.5502 19.6364H49.4593V24.5455H44.5502V19.6364ZM49.4593 4.90909H54.3684V9.81818H49.4593V4.90909ZM54.3684 9.81818H59.2775V14.7273H54.3684V9.81818ZM54.3684 14.7273H59.2775V19.6364H54.3684V14.7273ZM54.3684 19.6364H59.2775V24.5455H54.3684V19.6364Z" fill="currentColor" fill-opacity="0.2"/>
<path d="M24.9283 0H29.8373V4.90909H24.9283V0ZM20.0192 4.90909H24.9283V9.81818H20.0192V4.90909ZM20.0192 9.81818H24.9283V14.7273H20.0192V9.81818ZM20.0192 14.7273H24.9283V19.6364H20.0192V14.7273ZM20.0192 19.6364H24.9283V24.5455H20.0192V19.6364ZM24.9283 24.5455H29.8373V29.4545H24.9283V24.5455Z" fill="currentColor" fill-opacity="0.2"/>
<path d="M0.401978 9.81818H5.31107V14.7273H0.401978V9.81818ZM0.401978 14.7273H5.31107V19.6364H0.401978V14.7273ZM5.31107 19.6364H10.2202V24.5455H5.31107V19.6364ZM10.2202 14.7273H15.1293V19.6364H10.2202V14.7273ZM10.2202 9.81818H15.1293V14.7273H10.2202V9.81818ZM5.31107 4.90909H10.2202V9.81818H5.31107V4.90909Z" fill="currentColor" fill-opacity="0.6"/>
</svg>
